<svg width="23" height="52" viewBox="0 0 23 52" fill="none" xmlns="http://www.w3.org/2000/svg">
<path opacity="0.5" d="M4.328 52V49.624C6.008 49.528 7.28 49.144 8.144 48.472C9.056 47.8 9.68 46.864 10.016 45.664C10.4 44.464 10.592 43.048 10.592 41.416L10.376 7.432L1.736 12.976L0.296 10.888L14.336 0.447999H16.784L16.856 44.152C16.856 45.064 16.832 45.952 16.784 46.816C16.784 47.68 16.736 48.448 16.64 49.12C17.648 49.072 18.656 49.024 19.664 48.976C20.672 48.928 21.68 48.88 22.688 48.832V52H4.328Z" fill="#60101D"/>
</svg>
