<svg width="36" height="83" viewBox="0 0 36 83" fill="none" xmlns="http://www.w3.org/2000/svg">
<path opacity="0.1" d="M6.51 83V79.205C9.19333 79.0517 11.225 78.4383 12.605 77.365C14.0617 76.2917 15.0583 74.7967 15.595 72.88C16.2083 70.9633 16.515 68.7017 16.515 66.095L16.17 11.815L2.37 20.67L0.0700001 17.335L22.495 0.659998H26.405L26.52 70.465C26.52 71.9217 26.4817 73.34 26.405 74.72C26.405 76.1 26.3283 77.3267 26.175 78.4C27.785 78.3233 29.395 78.2467 31.005 78.17C32.615 78.0933 34.225 78.0167 35.835 77.94V83H6.51Z" fill="#F8F7F0"/>
</svg>
