<svg width="32" height="52" viewBox="0 0 32 52" fill="none" xmlns="http://www.w3.org/2000/svg">
<path opacity="0.5" d="M0.312 52C0.312 49.456 0.696 47.2 1.464 45.232C2.28 43.264 3.36 41.464 4.704 39.832C6.048 38.152 7.56 36.544 9.24 35.008C10.968 33.424 12.72 31.768 14.496 30.04C17.616 27.064 19.872 24.304 21.264 21.76C22.656 19.216 23.352 16.768 23.352 14.416C23.352 12.592 23.088 10.84 22.56 9.16C22.08 7.432 21.192 6.016 19.896 4.912C18.6 3.808 16.8 3.256 14.496 3.256C12.528 3.256 10.776 3.76 9.24 4.768C7.704 5.728 6.672 6.928 6.144 8.368C6.624 8.848 6.96 9.376 7.152 9.952C7.344 10.48 7.44 11.008 7.44 11.536C7.44 11.968 7.32 12.448 7.08 12.976C6.888 13.504 6.528 13.96 6 14.344C5.472 14.728 4.776 14.92 3.912 14.92C2.856 14.872 2.04 14.464 1.464 13.696C0.888 12.928 0.6 12.016 0.6 10.96C0.6 9.952 0.912 8.848 1.536 7.648C2.16 6.4 3.096 5.248 4.344 4.192C5.64 3.088 7.224 2.2 9.096 1.528C10.968 0.807998 13.152 0.447999 15.648 0.447999C17.568 0.447999 19.416 0.687998 21.192 1.168C23.016 1.6 24.648 2.32 26.088 3.328C27.528 4.336 28.656 5.68 29.472 7.36C30.336 8.992 30.768 11.032 30.768 13.48C30.768 14.68 30.504 15.976 29.976 17.368C29.496 18.76 28.68 20.272 27.528 21.904C26.424 23.488 24.984 25.192 23.208 27.016C21.432 28.792 19.248 30.736 16.656 32.848C13.392 35.536 10.704 38.08 8.592 40.48C6.528 42.832 5.328 44.848 4.992 46.528L17.736 46.888C20.088 46.936 22.152 46.936 23.928 46.888C25.752 46.84 27.168 46.48 28.176 45.808C29.232 45.088 29.76 43.792 29.76 41.92H31.92L31.488 52H0.312Z" fill="#60101D"/>
</svg>
