<svg width="51" height="83" viewBox="0 0 51 83" fill="none" xmlns="http://www.w3.org/2000/svg">
<path opacity="0.1" d="M0.29 83C0.29 78.9367 0.903334 75.3333 2.13 72.19C3.43333 69.0467 5.15833 66.1717 7.305 63.565C9.45167 60.8817 11.8667 58.3133 14.55 55.86C17.31 53.33 20.1083 50.685 22.945 47.925C27.9283 43.1717 31.5317 38.7633 33.755 34.7C35.9783 30.6367 37.09 26.7267 37.09 22.97C37.09 20.0567 36.6683 17.2583 35.825 14.575C35.0583 11.815 33.64 9.55333 31.57 7.78999C29.5 6.02666 26.625 5.14499 22.945 5.14499C19.8017 5.14499 17.0033 5.95 14.55 7.56C12.0967 9.09333 10.4483 11.01 9.605 13.31C10.3717 14.0767 10.9083 14.92 11.215 15.84C11.5217 16.6833 11.675 17.5267 11.675 18.37C11.675 19.06 11.4833 19.8267 11.1 20.67C10.7933 21.5133 10.2183 22.2417 9.375 22.855C8.53167 23.4683 7.42 23.775 6.04 23.775C4.35333 23.6983 3.05 23.0467 2.13 21.82C1.21 20.5933 0.75 19.1367 0.75 17.45C0.75 15.84 1.24833 14.0767 2.245 12.16C3.24167 10.1667 4.73667 8.32666 6.73 6.64C8.8 4.87666 11.33 3.45833 14.32 2.385C17.31 1.235 20.7983 0.659998 24.785 0.659998C27.8517 0.659998 30.8033 1.04333 33.64 1.81C36.5533 2.5 39.16 3.65 41.46 5.25999C43.76 6.87 45.5617 9.01666 46.865 11.7C48.245 14.3067 48.935 17.565 48.935 21.475C48.935 23.3917 48.5133 25.4617 47.67 27.685C46.9033 29.9083 45.6 32.3233 43.76 34.93C41.9967 37.46 39.6967 40.1817 36.86 43.095C34.0233 45.9317 30.535 49.0367 26.395 52.41C21.1817 56.7033 16.8883 60.7667 13.515 64.6C10.2183 68.3567 8.30167 71.5767 7.765 74.26L28.12 74.835C31.8767 74.9117 35.1733 74.9117 38.01 74.835C40.9233 74.7583 43.185 74.1833 44.795 73.11C46.4817 71.96 47.325 69.89 47.325 66.9H50.775L50.085 83H0.29Z" fill="#F8F7F0"/>
</svg>
