<svg width="34" height="54" viewBox="0 0 34 54" fill="none" xmlns="http://www.w3.org/2000/svg">
<path opacity="0.5" d="M15.36 53.152C11.904 53.152 9.048 52.648 6.792 51.64C4.536 50.584 2.856 49.288 1.752 47.752C0.696 46.216 0.168 44.752 0.168 43.36C0.168 42.256 0.456 41.344 1.032 40.624C1.608 39.856 2.424 39.448 3.48 39.4C4.344 39.352 5.016 39.52 5.496 39.904C6.024 40.24 6.384 40.672 6.576 41.2C6.768 41.728 6.864 42.208 6.864 42.64C6.864 43.12 6.792 43.6 6.648 44.08C6.504 44.56 6.312 45.04 6.072 45.52C6.552 47.152 7.632 48.328 9.312 49.048C11.04 49.768 12.888 50.128 14.856 50.128C18.264 50.128 20.976 49.192 22.992 47.32C25.056 45.448 26.088 42.736 26.088 39.184C26.088 37.072 25.752 35.08 25.08 33.208C24.408 31.288 23.16 29.728 21.336 28.528C19.512 27.328 16.848 26.776 13.344 26.872C12.96 26.872 12.552 26.896 12.12 26.944C11.688 26.944 11.208 26.968 10.68 27.016V23.776C11.208 23.776 11.712 23.776 12.192 23.776C12.672 23.776 13.152 23.776 13.632 23.776C16.176 23.776 18.168 23.2 19.608 22.048C21.048 20.896 22.08 19.528 22.704 17.944C23.328 16.36 23.64 14.896 23.64 13.552C23.64 11.584 23.376 9.832 22.848 8.296C22.368 6.712 21.504 5.488 20.256 4.624C19.008 3.712 17.28 3.256 15.072 3.256C12.912 3.256 11.064 3.832 9.528 4.984C7.992 6.088 7.032 7.24 6.648 8.44C7.08 8.92 7.368 9.4 7.512 9.88C7.704 10.36 7.8 10.864 7.8 11.392C7.8 11.776 7.68 12.232 7.44 12.76C7.248 13.24 6.912 13.648 6.432 13.984C5.952 14.32 5.304 14.488 4.488 14.488C3.48 14.488 2.712 14.128 2.184 13.408C1.656 12.688 1.392 11.824 1.392 10.816C1.392 9.472 1.92 8.008 2.976 6.424C4.032 4.792 5.64 3.4 7.8 2.248C10.008 1.048 12.768 0.447999 16.08 0.447999C18.672 0.447999 21.072 0.855998 23.28 1.672C25.488 2.488 27.264 3.832 28.608 5.704C29.952 7.528 30.624 9.952 30.624 12.976C30.624 14.464 30.24 15.976 29.472 17.512C28.752 19 27.528 20.392 25.8 21.688C24.12 22.984 21.792 24.088 18.816 25C23.376 25.48 26.952 26.944 29.544 29.392C32.184 31.84 33.504 34.936 33.504 38.68C33.504 41.944 32.64 44.656 30.912 46.816C29.232 48.928 27 50.512 24.216 51.568C21.48 52.624 18.528 53.152 15.36 53.152Z" fill="#60101D"/>
</svg>
