<svg width="54" height="85" viewBox="0 0 54 85" fill="none" xmlns="http://www.w3.org/2000/svg">
<path opacity="0.1" d="M24.325 84.84C18.805 84.84 14.2433 84.035 10.64 82.425C7.03667 80.7383 4.35333 78.6683 2.59 76.215C0.903334 73.7617 0.0600004 71.4233 0.0600004 69.2C0.0600004 67.4367 0.52 65.98 1.44 64.83C2.36 63.6033 3.66333 62.9517 5.35 62.875C6.73 62.7983 7.80333 63.0667 8.57 63.68C9.41333 64.2167 9.98833 64.9067 10.295 65.75C10.6017 66.5933 10.755 67.36 10.755 68.05C10.755 68.8167 10.64 69.5833 10.41 70.35C10.18 71.1167 9.87333 71.8833 9.49 72.65C10.2567 75.2567 11.9817 77.135 14.665 78.285C17.425 79.435 20.3767 80.01 23.52 80.01C28.9633 80.01 33.295 78.515 36.515 75.525C39.8117 72.535 41.46 68.2033 41.46 62.53C41.46 59.1567 40.9233 55.975 39.85 52.985C38.7767 49.9183 36.7833 47.4267 33.87 45.51C30.9567 43.5933 26.7017 42.7117 21.105 42.865C20.4917 42.865 19.84 42.9033 19.15 42.98C18.46 42.98 17.6933 43.0183 16.85 43.095V37.92C17.6933 37.92 18.4983 37.92 19.265 37.92C20.0317 37.92 20.7983 37.92 21.565 37.92C25.6283 37.92 28.81 37 31.11 35.16C33.41 33.32 35.0583 31.135 36.055 28.605C37.0517 26.075 37.55 23.7367 37.55 21.59C37.55 18.4467 37.1283 15.6483 36.285 13.195C35.5183 10.665 34.1383 8.70999 32.145 7.32999C30.1517 5.87333 27.3917 5.14499 23.865 5.14499C20.415 5.14499 17.4633 6.06499 15.01 7.90499C12.5567 9.66833 11.0233 11.5083 10.41 13.425C11.1 14.1917 11.56 14.9583 11.79 15.725C12.0967 16.4917 12.25 17.2967 12.25 18.14C12.25 18.7533 12.0583 19.4817 11.675 20.325C11.3683 21.0917 10.8317 21.7433 10.065 22.28C9.29833 22.8167 8.26333 23.085 6.96 23.085C5.35 23.085 4.12333 22.51 3.28 21.36C2.43667 20.21 2.015 18.83 2.015 17.22C2.015 15.0733 2.85833 12.735 4.545 10.205C6.23167 7.59833 8.8 5.37499 12.25 3.53499C15.7767 1.61833 20.185 0.659998 25.475 0.659998C29.615 0.659998 33.4483 1.31166 36.975 2.61499C40.5017 3.91833 43.3383 6.065 45.485 9.055C47.6317 11.9683 48.705 15.84 48.705 20.67C48.705 23.0467 48.0917 25.4617 46.865 27.915C45.715 30.2917 43.76 32.515 41 34.585C38.3167 36.655 34.5983 38.4183 29.845 39.875C37.1283 40.6417 42.84 42.98 46.98 46.89C51.1967 50.8 53.305 55.745 53.305 61.725C53.305 66.9383 51.925 71.27 49.165 74.72C46.4817 78.0933 42.9167 80.6233 38.47 82.31C34.1 83.9967 29.385 84.84 24.325 84.84Z" fill="#F8F7F0"/>
</svg>
