<svg width="37" height="52" viewBox="0 0 37 52" fill="none" xmlns="http://www.w3.org/2000/svg">
<path opacity="0.5" d="M29.304 44.152C29.304 45.112 29.28 46.024 29.232 46.888C29.232 47.752 29.16 48.544 29.016 49.264C29.976 49.216 30.912 49.192 31.824 49.192C32.736 49.144 33.648 49.096 34.56 49.048V52H16.488V49.624H16.992C18.624 49.48 19.848 49.024 20.664 48.256C21.48 47.488 22.032 46.456 22.32 45.16C22.608 43.864 22.752 42.328 22.752 40.552V38.104H0.864V34.576L26.928 0.447999H29.304V33.784L36.576 33.856V38.104H29.304V44.152ZM22.608 10.672L5.616 33.424L22.752 33.64V10.672H22.608Z" fill="#60101D"/>
</svg>
