<svg width="58" height="83" viewBox="0 0 58 83" fill="none" xmlns="http://www.w3.org/2000/svg">
<path opacity="0.1" d="M45.805 70.465C45.805 71.9983 45.7667 73.455 45.69 74.835C45.69 76.215 45.575 77.48 45.345 78.63C46.8783 78.5533 48.3733 78.515 49.83 78.515C51.2867 78.4383 52.7433 78.3617 54.2 78.285V83H25.335V79.205H26.14C28.7467 78.975 30.7017 78.2467 32.005 77.02C33.3083 75.7933 34.19 74.145 34.65 72.075C35.11 70.005 35.34 67.5517 35.34 64.715V60.805H0.38V55.17L42.01 0.659998H45.805V53.905L57.42 54.02V60.805H45.805V70.465ZM35.11 16.99L7.97 53.33L35.34 53.675V16.99H35.11Z" fill="#F8F7F0"/>
</svg>
