<svg width="53" height="90" viewBox="0 0 53 90" fill="none" xmlns="http://www.w3.org/2000/svg">
<path opacity="0.1" d="M24.21 89.84C19.3033 89.84 15.125 89.035 11.675 87.425C8.225 85.7383 5.58 83.6683 3.74 81.215C1.9 78.7617 0.98 76.4233 0.98 74.2C0.98 72.4367 1.44 70.98 2.36 69.83C3.28 68.6033 4.58333 67.9517 6.27 67.875C7.65 67.7983 8.72333 68.0667 9.49 68.68C10.3333 69.2167 10.9083 69.9067 11.215 70.75C11.5217 71.5933 11.675 72.36 11.675 73.05C11.675 73.8167 11.56 74.5833 11.33 75.35C11.1 76.1167 10.7933 76.845 10.41 77.535C10.7167 79.375 11.675 80.9083 13.285 82.135C14.895 83.285 16.735 84.1283 18.805 84.665C20.9517 85.2017 22.9067 85.4317 24.67 85.355C28.4267 85.2017 31.455 84.205 33.755 82.365C36.055 80.4483 37.7417 78.0333 38.815 75.12C39.965 72.2067 40.54 69.14 40.54 65.92C40.54 63.7733 40.3483 61.3967 39.965 58.79C39.6583 56.1833 38.8917 53.73 37.665 51.43C36.515 49.0533 34.7517 47.0983 32.375 45.565C29.9983 44.0317 26.7783 43.265 22.715 43.265C21.4117 43.265 19.8017 43.4183 17.885 43.725C16.045 44.0317 14.1667 44.4917 12.25 45.105C10.41 45.7183 8.83833 46.4467 7.535 47.29L4.315 44.3L4.085 7.49999H33.87C38.24 7.49999 41.23 6.925 42.84 5.775C44.5267 4.54833 45.37 2.63166 45.37 0.0249948H48.475L47.785 15.205L9.375 16.01V41.31C11.215 40.5433 13.5917 39.815 16.505 39.125C19.495 38.435 22.6767 38.09 26.05 38.09C30.8033 38.09 34.8283 38.8567 38.125 40.39C41.4983 41.8467 44.22 43.84 46.29 46.37C48.4367 48.8233 50.0083 51.5833 51.005 54.65C52.0017 57.64 52.5 60.7067 52.5 63.85C52.5 69.5233 51.1583 74.315 48.475 78.225C45.8683 82.0583 42.4183 84.9717 38.125 86.965C33.8317 88.8817 29.1933 89.84 24.21 89.84Z" fill="#F8F7F0"/>
</svg>
