<svg width="55" height="85" viewBox="0 0 55 85" fill="none" xmlns="http://www.w3.org/2000/svg">
<path opacity="0.1" d="M27.925 84.84C21.1017 84.84 15.6583 83.23 11.595 80.01C7.60833 76.79 4.73333 72.2283 2.97 66.325C1.28333 60.345 0.44 53.2917 0.44 45.165C0.44 42.405 0.67 39.1467 1.13 35.39C1.66667 31.5567 2.58667 27.6467 3.89 23.66C5.19333 19.5967 6.995 15.84 9.295 12.39C11.6717 8.86333 14.7 6.02666 18.38 3.88C22.06 1.73333 26.5067 0.659998 31.72 0.659998C36.32 0.659998 40.115 1.50333 43.105 3.19C46.095 4.8 48.3183 6.755 49.775 9.055C51.3083 11.2783 52.075 13.3483 52.075 15.265C52.075 16.875 51.6533 18.255 50.81 19.405C50.0433 20.4783 48.8167 21.0917 47.13 21.245C45.2133 21.3217 43.8717 20.785 43.105 19.635C42.3383 18.485 41.955 17.4117 41.955 16.415C41.955 15.6483 42.07 14.8433 42.3 14C42.53 13.1567 42.875 12.3517 43.335 11.585C42.9517 10.205 41.725 8.74833 39.655 7.215C37.6617 5.68166 35.0933 4.915 31.95 4.915C28.4233 4.915 25.4333 5.835 22.98 7.675C20.6033 9.515 18.6483 11.93 17.115 14.92C15.6583 17.91 14.5083 21.13 13.665 24.58C12.8217 27.9533 12.2083 31.2117 11.825 34.355C11.5183 37.4983 11.3267 40.1817 11.25 42.405C12.5533 40.7183 14.125 39.1467 15.965 37.69C17.805 36.2333 19.9517 35.045 22.405 34.125C24.8583 33.205 27.58 32.745 30.57 32.745C35.17 32.745 39.0033 33.55 42.07 35.16C45.2133 36.6933 47.705 38.725 49.545 41.255C51.4617 43.785 52.8033 46.5833 53.57 49.65C54.4133 52.64 54.835 55.5917 54.835 58.505C54.835 63.2583 53.6467 67.6667 51.27 71.73C48.97 75.7167 45.7883 78.8983 41.725 81.275C37.6617 83.6517 33.0617 84.84 27.925 84.84ZM28.155 80.355C31.7583 80.355 34.6717 79.4733 36.895 77.71C39.1183 75.87 40.7283 73.4933 41.725 70.58C42.7217 67.59 43.22 64.4083 43.22 61.035C43.22 58.8883 43.0283 56.5117 42.645 53.905C42.2617 51.2217 41.5333 48.6917 40.46 46.315C39.4633 43.8617 37.9683 41.8683 35.975 40.335C33.9817 38.725 31.375 37.92 28.155 37.92C25.7783 37.92 23.44 38.5333 21.14 39.76C18.84 40.91 16.8083 42.4433 15.045 44.36C13.3583 46.2767 12.1317 48.3467 11.365 50.57C11.595 54.25 12.0167 57.8533 12.63 61.38C13.32 64.9067 14.2783 68.0883 15.505 70.925C16.8083 73.7617 18.495 76.0617 20.565 77.825C22.635 79.5117 25.165 80.355 28.155 80.355Z" fill="#F8F7F0"/>
</svg>
