<svg width="49" height="83" viewBox="0 0 49 83" fill="none" xmlns="http://www.w3.org/2000/svg">
<path opacity="0.1" d="M20.425 82.84C18.9683 82.6867 17.9333 82.15 17.32 81.23C16.7067 80.31 16.4 79.16 16.4 77.78C16.4 76.0933 16.8217 73.9083 17.665 71.225C18.585 68.5417 19.6583 65.705 20.885 62.715C22.1117 59.6483 23.2233 56.85 24.22 54.32C25.6767 50.7167 27.4017 46.3467 29.395 41.21C31.3883 36.0733 33.5733 30.6683 35.95 24.995C38.4033 19.245 40.895 13.725 43.425 8.435L13.065 8.54999C9.99833 8.62666 7.58333 9.355 5.82 10.735C4.13333 12.115 3.29 14.3767 3.29 17.52H0.53V0.499995H48.715V8.32C45.955 14.07 43.54 19.5517 41.47 24.765C39.4767 29.9783 37.675 35.23 36.065 40.52C34.455 45.7333 32.9217 51.215 31.465 56.965C30.0083 62.715 28.4367 69.0017 26.75 75.825C26.29 77.665 25.5617 79.3133 24.565 80.77C23.645 82.2267 22.265 82.9167 20.425 82.84Z" fill="#F8F7F0"/>
</svg>
