<svg width="53" height="85" viewBox="0 0 53 85" fill="none" xmlns="http://www.w3.org/2000/svg">
<path opacity="0.1" d="M25.74 84.84C23.0567 84.84 20.2583 84.495 17.345 83.805C14.4317 83.1917 11.71 82.1567 9.18 80.7C6.72667 79.2433 4.695 77.2883 3.085 74.835C1.55167 72.3817 0.785 69.3533 0.785 65.75C0.785 62.3 1.62833 59.1567 3.315 56.32C5.00167 53.4067 7.14833 50.8 9.755 48.5C12.4383 46.1233 15.275 44.015 18.265 42.175C12.4383 38.6483 8.33667 35.16 5.96 31.71C3.58333 28.1833 2.395 24.7717 2.395 21.475C2.395 17.8717 3.085 14.7667 4.465 12.16C5.92167 9.47666 7.83833 7.29166 10.215 5.605C12.5917 3.91833 15.1983 2.69166 18.035 1.925C20.9483 1.08166 23.8617 0.659998 26.775 0.659998C30.685 0.659998 34.3267 1.38833 37.7 2.845C41.15 4.225 43.91 6.295 45.98 9.055C48.1267 11.815 49.2 15.1883 49.2 19.175C49.2 22.165 48.4717 24.925 47.015 27.455C45.635 29.985 43.7567 32.2467 41.38 34.24C39.08 36.1567 36.5117 37.8433 33.675 39.3C37.125 41.2933 40.3067 43.5933 43.22 46.2C46.1333 48.73 48.4717 51.49 50.235 54.48C51.9983 57.47 52.88 60.6133 52.88 63.91C52.88 68.74 51.615 72.7267 49.085 75.87C46.555 78.9367 43.22 81.1983 39.08 82.655C34.94 84.1117 30.4933 84.84 25.74 84.84ZM25.97 80.24C30.9533 80.3167 34.7867 79.09 37.47 76.56C40.23 74.03 41.61 70.5417 41.61 66.095C41.61 62.1083 40.1917 58.2367 37.355 54.48C34.595 50.6467 29.6883 47.235 22.635 44.245C18.4183 47.3117 15.3517 50.6083 13.435 54.135C11.595 57.6617 10.5983 60.8433 10.445 63.68C10.1383 68.5867 11.4033 72.5733 14.24 75.64C17.1533 78.63 21.0633 80.1633 25.97 80.24ZM29.65 37C33.0233 34.7 35.5917 32.0933 37.355 29.18C39.195 26.2667 40.1533 23.3917 40.23 20.555C40.3833 15.5717 39.2333 11.7767 36.78 9.17C34.3267 6.56333 31.0683 5.22166 27.005 5.14499C24.015 5.06833 21.485 5.72 19.415 7.1C17.345 8.40333 15.7733 10.1283 14.7 12.275C13.6267 14.345 13.09 16.5683 13.09 18.945C13.09 23.1617 14.6617 26.8417 17.805 29.985C21.025 33.0517 24.9733 35.39 29.65 37Z" fill="#F8F7F0"/>
</svg>
