<svg width="106" height="132" viewBox="0 0 106 132" fill="none" xmlns="http://www.w3.org/2000/svg">
<path fill-rule="evenodd" clip-rule="evenodd" d="M53.5872 2.18981C72.4339 14.4488 80.343 38.8864 71.9705 58.9916C69.7291 64.3748 67.3979 68.0424 61.8904 74.853C56.8195 81.1232 54.5949 84.9303 53.349 89.468C50.8573 98.5428 52.2497 107.867 57.2666 115.701C58.2611 117.253 58.9618 118.531 58.8247 118.54C58.6877 118.549 56.4937 118.034 53.9491 117.396C47.046 115.664 43.0922 113.774 41.4007 111.397C36.5207 104.539 31.6775 93.6 30.0676 85.7994C28.7932 79.6216 28.6245 68.945 29.7115 63.2164C31.5299 53.636 35.544 44.1504 40.9508 36.6562C46.7934 28.559 50.4047 20.8292 51.2756 14.5582C51.8311 10.5541 51.3657 4.57667 50.3022 2.06526C49.827 0.943159 49.6059 0.0135699 49.8106 0.00013576C50.0154 -0.0132983 51.7147 0.972015 53.5872 2.18981ZM82.685 42.6814C86.3944 46.7844 89.3954 51.7398 91.4247 57.1152C92.7485 60.6219 93.5925 61.8329 93.9893 68.5151C93.9556 76.5756 93.7643 77.3186 92.7165 81.36C89.9638 91.9805 85.129 99.0389 75.2499 106.861C71.7812 109.607 67.8746 113.044 66.5679 114.497L65.5384 115.642C64.8157 116.446 63.5629 116.452 62.8324 115.655C58.6233 111.062 56.1939 104.959 56.4981 99.7416C56.9422 92.1104 60.5051 84.9805 68.4005 75.9248C77.7588 65.1904 81.0165 58.0648 80.825 48.7488C80.7585 45.5423 80.4171 42.6155 79.9881 41.5815C79.589 40.6205 79.3558 39.7258 79.4697 39.5942C79.5835 39.462 81.03 40.8515 82.685 42.6814ZM17.0195 54.8033C18.3083 54.9508 20.5506 55.7942 22.0021 56.6783C24.6351 58.2814 24.6413 58.2922 24.4578 60.8815C23.1075 79.9443 25.1543 91.213 32.4748 105.027C34.2772 107.722 37.9837 111.621 37.8156 111.632C36.849 111.695 26.559 104.494 23.5475 101.549C17.9713 96.0949 14.0791 88.8198 11.9338 79.8389C10.5482 71.8189 6.99274 67.1049 0.814575 64.4594C-0.229332 63.996 -0.281868 62.5255 0.72628 61.9879L1.94945 61.3357C3.99121 60.2476 6.0149 59.0913 6.44658 58.7665C10.8361 55.4639 13.6327 54.4158 17.0195 54.8033ZM74.1229 113.108C80.1843 113.069 86.0658 115.2 91.73 117.388C98.191 119.885 105.963 123.004 106 123.58C106.016 123.83 105.168 124.912 104.116 125.984C99.6779 130.508 96.1274 130.636 90.3558 131.83C88.2654 132.263 86.0897 131.861 84.2885 130.709L82.4601 129.54C79.9103 127.909 75.0088 123.629 72.2387 122.43L71.5141 122.116C69.3801 121.193 68.7549 118.448 70.2761 116.682C71.967 114.718 73.6975 113.11 74.1229 113.108Z" fill="url(#paint0_linear_145_79)"/>
<defs>
<linearGradient id="paint0_linear_145_79" x1="-1.76282" y1="132.505" x2="-1.76283" y2="-2.41351e-06" gradientUnits="userSpaceOnUse">
<stop stop-color="#520E14"/>
<stop offset="1" stop-color="#801433"/>
</linearGradient>
</defs>
</svg>
