<svg width="43" height="46" viewBox="0 0 43 46" fill="none" xmlns="http://www.w3.org/2000/svg">
<path d="M36.661 32.1706L35.5652 31.5693L36.661 32.1706ZM6.56232 32.1706L5.46646 32.772L6.56232 32.1706ZM2.00578 15.1501L0.757374 15.2131L2.00578 15.1501ZM33.0914 37.1503L34.0366 37.9683L33.0914 37.1503ZM10.1319 37.1503L11.0771 36.3322L10.1319 37.1503ZM41.2353 13.901L42.4844 13.9489L41.2353 13.901ZM29.1386 19.8476C29.5717 19.3101 29.4871 18.5231 28.9495 18.09C28.4119 17.6568 27.625 17.7415 27.1919 18.279L29.1386 19.8476ZM23.7491 24.5439L22.7758 23.7596L23.7491 24.5439ZM16.1972 24.5439L15.2238 25.3282L16.1972 24.5439ZM16.0312 22.3458C15.5981 21.8082 14.8112 21.7235 14.2736 22.1567C13.7361 22.5898 13.6514 23.3768 14.0846 23.9143L16.0312 22.3458ZM39.9862 13.8532C39.8125 18.3886 38.9285 25.4399 35.5652 31.5693L37.7569 32.772C41.392 26.1474 42.3045 18.6449 42.4844 13.9489L39.9862 13.8532ZM35.5652 31.5693C34.6981 33.1495 33.5032 34.7645 32.1463 36.3322L34.0366 37.9683C35.4646 36.3184 36.7775 34.5568 37.7569 32.772L35.5652 31.5693ZM11.0771 36.3322C9.72014 34.7645 8.52528 33.1495 7.65818 31.5693L5.46646 32.772C6.44581 34.5568 7.75872 36.3184 9.18678 37.9683L11.0771 36.3322ZM7.65818 31.5693C4.38933 25.6121 3.46429 19.2486 3.25419 15.0871L0.757374 15.2131C0.977585 19.5751 1.9465 26.3572 5.46646 32.772L7.65818 31.5693ZM6.69257 11.7572H7.3673V9.25717H6.69257V11.7572ZM35.2189 10.4828H36.5064V7.98285H35.2189V10.4828ZM30.1459 5.40988C30.1459 8.2116 32.4172 10.4828 35.2189 10.4828V7.98285C33.7979 7.98285 32.6459 6.83089 32.6459 5.40988H30.1459ZM7.3673 11.7572C10.5209 11.7572 13.0774 9.20066 13.0774 6.04704H10.5774C10.5774 7.81995 9.1402 9.25717 7.3673 9.25717V11.7572ZM16.2875 0.336914C13.1339 0.336914 10.5774 2.89342 10.5774 6.04704H13.0774C13.0774 4.27414 14.5146 2.83691 16.2875 2.83691V0.336914ZM3.25419 15.0871C3.16212 13.2633 4.66668 11.7572 6.69257 11.7572V9.25717C3.44015 9.25717 0.583317 11.7653 0.757374 15.2131L3.25419 15.0871ZM32.1463 36.3322C29.9501 38.8696 28.4288 40.6166 26.8628 41.7637C25.3793 42.8506 23.8514 43.396 21.6117 43.396V45.896C24.3639 45.896 26.4132 45.1922 28.3403 43.7805C30.185 42.4291 31.9076 40.4281 34.0366 37.9683L32.1463 36.3322ZM9.18678 37.9683C11.3158 40.4281 13.0384 42.4291 14.8831 43.7805C16.8101 45.1922 18.8595 45.896 21.6117 45.896V43.396C19.372 43.396 17.844 42.8506 16.3605 41.7637C14.7946 40.6166 13.2733 38.8696 11.0771 36.3322L9.18678 37.9683ZM27.573 2.83691C28.994 2.83691 30.1459 3.98887 30.1459 5.40988H32.6459C32.6459 2.60816 30.3747 0.336914 27.573 0.336914V2.83691ZM42.4844 13.9489C42.616 10.5127 39.775 7.98285 36.5064 7.98285V10.4828C38.5297 10.4828 40.0572 12.0012 39.9862 13.8532L42.4844 13.9489ZM27.1919 18.279L22.7758 23.7596L24.7225 25.3282L29.1386 19.8476L27.1919 18.279ZM17.1705 23.7596L16.0312 22.3458L14.0846 23.9143L15.2238 25.3282L17.1705 23.7596ZM22.7758 23.7596C21.8766 24.8756 21.2845 25.6056 20.7834 26.0736C20.305 26.5203 20.0916 26.5515 19.9731 26.5515V29.0515C21.0058 29.0515 21.8054 28.5398 22.4897 27.9007C23.1514 27.2828 23.8718 26.384 24.7225 25.3282L22.7758 23.7596ZM15.2238 25.3282C16.0745 26.384 16.7949 27.2828 17.4565 27.9007C18.1409 28.5398 18.9405 29.0515 19.9731 29.0515V26.5515C19.8547 26.5515 19.6413 26.5203 19.1629 26.0736C18.6618 25.6056 18.0697 24.8756 17.1705 23.7596L15.2238 25.3282ZM16.2875 2.83691H27.573V0.336914H16.2875V2.83691Z" fill="#60101D"/>
</svg>
