<svg width="46" height="47" viewBox="0 0 46 47" fill="none" xmlns="http://www.w3.org/2000/svg">
<path d="M6.42651 43.0354L7.18209 42.0396L7.18209 42.0396L6.42651 43.0354ZM4.05084 40.5544L3.02473 41.2682H3.02473L4.05084 40.5544ZM36.2316 43.0354L35.476 42.0396V42.0396L36.2316 43.0354ZM38.6073 40.5544L37.5811 39.8405L38.6073 40.5544ZM4.05084 9.42728L3.02473 8.71342H3.02473L4.05084 9.42728ZM6.42651 6.94623L7.18209 7.94203V7.94203L6.42651 6.94623ZM17.0493 6.07049C17.7397 6.06184 18.2922 5.49524 18.2836 4.80494C18.275 4.11463 17.7084 3.56204 17.0181 3.57068L17.0493 6.07049ZM41.8925 29.4911C41.9005 28.8007 41.3473 28.2347 40.657 28.2268C39.9667 28.2189 39.4006 28.772 39.3927 29.4624L41.8925 29.4911ZM23.0419 33.9726L22.8979 32.7309L23.0419 33.9726ZM14.194 33.3053L13.2911 34.1698L13.2911 34.1699L14.194 33.3053ZM13.5551 24.0649L14.7981 24.1972L13.5551 24.0649ZM16.0187 18.7117L15.1159 17.8472L16.0187 18.7117ZM14.1192 21.0532L12.9836 20.5306V20.5306L14.1192 21.0532ZM28.1678 31.3997L29.0706 32.2642L28.1678 31.3997ZM25.9258 33.3835L26.4866 34.5007L25.9258 33.3835ZM21.329 43.9272C17.2734 43.9272 14.3365 43.9254 12.0569 43.6674C9.80406 43.4125 8.3429 42.9204 7.18209 42.0396L5.67093 44.0312C7.33286 45.2922 9.29637 45.871 11.7758 46.1516C14.2285 46.4291 17.3315 46.4272 21.329 46.4272V43.9272ZM0.75 24.9908C0.75 29.1694 0.748425 32.3994 1.01303 34.95C1.27974 37.521 1.82809 39.5482 3.02473 41.2682L5.07696 39.8405C4.22275 38.6127 3.74568 37.0633 3.49968 34.6921C3.25157 32.3005 3.25 29.2227 3.25 24.9908H0.75ZM7.18209 42.0396C6.37628 41.4282 5.66548 40.6865 5.07696 39.8405L3.02473 41.2682C3.76088 42.3264 4.65348 43.2592 5.67093 44.0312L7.18209 42.0396ZM21.329 46.4272C25.3266 46.4272 28.4296 46.4291 30.8823 46.1516C33.3617 45.871 35.3252 45.2922 36.9872 44.0312L35.476 42.0396C34.3152 42.9204 32.854 43.4125 30.6012 43.6674C28.3216 43.9254 25.3847 43.9272 21.329 43.9272V46.4272ZM37.5811 39.8405C36.9926 40.6865 36.2818 41.4282 35.476 42.0396L36.9872 44.0312C38.0046 43.2592 38.8972 42.3264 39.6334 41.2682L37.5811 39.8405ZM3.25 24.9908C3.25 20.759 3.25157 17.6812 3.49968 15.2896C3.74568 12.9184 4.22275 11.369 5.07696 10.1411L3.02473 8.71342C1.82809 10.4335 1.27974 12.4607 1.01303 15.0317C0.748425 17.5822 0.75 20.8123 0.75 24.9908H3.25ZM5.67093 5.95044C4.65348 6.72245 3.76088 7.65525 3.02473 8.71342L5.07696 10.1411C5.66548 9.29517 6.37628 8.55345 7.18209 7.94203L5.67093 5.95044ZM17.0181 3.57068C11.7873 3.63616 8.31609 3.94337 5.67093 5.95044L7.18209 7.94203C9.07508 6.50568 11.6978 6.13748 17.0493 6.07049L17.0181 3.57068ZM39.3927 29.4624C39.3286 35.0512 38.9765 37.8348 37.5811 39.8405L39.6334 41.2682C41.5352 38.5345 41.8298 34.9539 41.8925 29.4911L39.3927 29.4624ZM38.8018 18.4866L27.2649 30.5352L29.0706 32.2642L40.6075 20.2156L38.8018 18.4866ZM16.9216 19.5762L28.4584 7.52762L26.6527 5.79861L15.1159 17.8472L16.9216 19.5762ZM22.8979 32.7309C20.3946 33.0214 18.6584 33.2195 17.3605 33.1757C16.1034 33.1333 15.5061 32.8683 15.0968 32.4408L13.2911 34.1699C14.3417 35.267 15.7056 35.6213 17.2762 35.6743C18.806 35.7259 20.7639 35.4953 23.186 35.2142L22.8979 32.7309ZM12.3121 23.9327C12.0424 26.4675 11.8236 28.4982 11.8725 30.081C11.9223 31.6908 12.2514 33.0839 13.2911 34.1698L15.0968 32.4408C14.6768 32.0022 14.4128 31.3471 14.3713 30.0038C14.3289 28.6336 14.5205 26.8063 14.7981 24.1972L12.3121 23.9327ZM15.1159 17.8472C14.1174 18.8899 13.4082 19.608 12.9836 20.5306L15.2547 21.5757C15.4639 21.1212 15.8098 20.7373 16.9216 19.5762L15.1159 17.8472ZM14.7981 24.1972C14.9717 22.5659 15.0435 22.0347 15.2547 21.5757L12.9836 20.5306C12.5611 21.4487 12.4681 22.4664 12.3121 23.9327L14.7981 24.1972ZM27.2649 30.5352C26.1486 31.701 25.7865 32.0548 25.365 32.2663L26.4866 34.5007C27.3837 34.0503 28.0767 33.3022 29.0706 32.2642L27.2649 30.5352ZM23.186 35.2142C24.5822 35.0522 25.5846 34.9534 26.4866 34.5007L25.3651 32.2663C24.9484 32.4755 24.4678 32.5487 22.8979 32.7309L23.186 35.2142ZM38.8018 7.52762C40.2576 9.04803 41.2616 10.1003 41.9168 10.9972C42.5495 11.8632 42.75 12.4449 42.75 13.0071H45.25C45.25 11.7112 44.7346 10.6162 43.9355 9.52239C43.159 8.45947 42.0152 7.26878 40.6075 5.79861L38.8018 7.52762ZM40.6075 20.2156C42.0152 18.7454 43.159 17.5547 43.9355 16.4918C44.7346 15.398 45.25 14.303 45.25 13.0071H42.75C42.75 13.5693 42.5495 14.151 41.9168 15.017C41.2616 15.9139 40.2576 16.9662 38.8018 18.4866L40.6075 20.2156ZM40.6075 5.79861C39.2005 4.3292 38.0595 3.13366 37.0397 2.32111C35.9936 1.48752 34.9199 0.927246 33.6301 0.927246V3.42725C34.1195 3.42725 34.6513 3.61461 35.4818 4.27632C36.3386 4.95905 37.3452 6.00645 38.8018 7.52762L40.6075 5.79861ZM28.4584 7.52762C29.915 6.00645 30.9216 4.95905 31.7785 4.27631C32.6089 3.61461 33.1407 3.42725 33.6301 3.42725V0.927246C32.3403 0.927246 31.2667 1.48752 30.2205 2.32111C29.2008 3.13366 28.0597 4.3292 26.6527 5.79861L28.4584 7.52762ZM40.6075 18.4866L28.4584 5.79861L26.6527 7.52762L38.8018 20.2156L40.6075 18.4866Z" fill="#60101D"/>
</svg>
