<svg width="50" height="50" viewBox="0 0 50 50" fill="none" xmlns="http://www.w3.org/2000/svg">
<path d="M22.4709 13.0236L21.2776 12.6511L22.4709 13.0236ZM17.8922 20.7659L18.6462 19.7689L17.8922 20.7659ZM18.9731 24.2284L20.1663 24.6009L18.9731 24.2284ZM23.5517 27.6909L22.7978 26.6939L23.5517 27.6909ZM27.0495 27.6909L27.8035 26.6939L27.0495 27.6909ZM31.6281 24.2284L30.4349 24.6009L31.6281 24.2284ZM32.709 20.7659L31.955 19.7689L32.709 20.7659ZM28.1304 13.0236L29.3236 12.6511L28.1304 13.0236ZM20.7057 38.8115L19.6211 38.1901L20.7057 38.8115ZM16.9113 45.4337L17.9959 46.0552L16.9113 45.4337ZM3.33284 37.5345L2.24827 36.913H2.24827L3.33284 37.5345ZM7.12726 30.9123L8.21183 31.5337L7.12726 30.9123ZM12.8429 45.0827L11.6591 45.4842L11.6591 45.4842L12.8429 45.0827ZM12.3161 43.53L13.4999 43.1284L12.3161 43.53ZM7.26658 40.5925L7.02357 39.3663H7.02357L7.26658 40.5925ZM5.66877 40.9091L5.91177 42.1353H5.91178L5.66877 40.9091ZM10.7024 40.4712L11.331 39.3907H11.331L10.7024 40.4712ZM2.1389 40.9321L1.1111 41.6435L2.1389 40.9321ZM21.8013 36.8546L20.8 36.1065L20.7405 36.1861L20.6943 36.2742L21.8013 36.8546ZM29.2943 38.8115L30.3789 38.1901L29.2943 38.8115ZM33.0887 45.4337L34.1733 44.8123L33.0887 45.4337ZM46.6672 37.5345L47.7517 36.913V36.913L46.6672 37.5345ZM42.8727 30.9123L41.7882 31.5337L42.8727 30.9123ZM37.1571 45.0827L38.3409 45.4842L38.3409 45.4842L37.1571 45.0827ZM37.6839 43.53L36.5001 43.1284L37.6839 43.53ZM42.7334 40.5925L42.9764 39.3663L42.7334 40.5925ZM44.3312 40.9091L44.0882 42.1353H44.0882L44.3312 40.9091ZM47.8611 40.9321L48.8889 41.6435L47.8611 40.9321ZM28.1893 36.8367H26.9393V37.1439L27.0816 37.416L28.1893 36.8367ZM9.8069 27.311L8.6852 27.8626L9.8069 27.311ZM21.9369 36.6731L22.1806 35.4471L21.9369 36.6731ZM28.1893 36.7606L27.9803 35.5282L28.1893 36.7606ZM40.6647 27.5692L39.5523 26.999L40.6647 27.5692ZM9.06022 27.8576L10.0025 28.6789L9.06022 27.8576ZM9.26945 19.59C9.26945 10.6546 16.4558 3.42725 25.3006 3.42725V0.927246C15.0572 0.927246 6.76945 9.29182 6.76945 19.59H9.26945ZM25.3006 3.42725C34.1454 3.42725 41.3318 10.6546 41.3318 19.59H43.8318C43.8318 9.29182 35.544 0.927246 25.3006 0.927246V3.42725ZM19.6411 16.4135C21.5044 16.4135 23.1111 15.1675 23.6641 13.3961L21.2776 12.6511C21.034 13.4317 20.3558 13.9135 19.6411 13.9135V16.4135ZM18.6462 19.7689C17.9593 19.2495 17.7703 18.4262 18.0046 17.6759C18.2378 16.9288 18.8346 16.4135 19.6411 16.4135V13.9135C17.5653 13.9135 16.1217 15.3177 15.6181 16.931C15.1155 18.541 15.4933 20.519 17.1383 21.7629L18.6462 19.7689ZM20.1663 24.6009C20.717 22.8367 20.1223 20.8852 18.6462 19.7689L17.1383 21.7629C17.7478 22.2239 18.0258 23.0681 17.7799 23.8559L20.1663 24.6009ZM22.7978 26.6939C22.129 27.1997 21.3796 27.1262 20.8079 26.6939C20.2289 26.256 19.8909 25.4832 20.1663 24.6009L17.7799 23.8559C17.1646 25.8269 17.95 27.667 19.3 28.6879C20.6573 29.7144 22.6426 29.9456 24.3057 28.6879L22.7978 26.6939ZM27.8035 26.6939C26.3146 25.568 24.2866 25.568 22.7978 26.6939L24.3057 28.6879C24.9025 28.2366 25.6987 28.2366 26.2955 28.6879L27.8035 26.6939ZM30.4349 24.6009C30.7103 25.4832 30.3723 26.256 29.7933 26.6939C29.2216 27.1262 28.4722 27.1997 27.8035 26.6939L26.2955 28.6879C27.9586 29.9456 29.9439 29.7144 31.3012 28.6879C32.6512 27.667 33.4366 25.8269 32.8213 23.8559L30.4349 24.6009ZM31.955 19.7689C30.4789 20.8852 29.8842 22.8367 30.4349 24.6009L32.8213 23.8559C32.5754 23.0681 32.8534 22.2239 33.463 21.7629L31.955 19.7689ZM30.9601 16.4135C31.7666 16.4135 32.3634 16.9288 32.5966 17.6759C32.8309 18.4262 32.6419 19.2495 31.955 19.7689L33.463 21.7629C35.1079 20.519 35.4857 18.541 34.9831 16.931C34.4795 15.3177 33.0359 13.9135 30.9601 13.9135V16.4135ZM26.9371 13.3961C27.4901 15.1675 29.0968 16.4135 30.9601 16.4135V13.9135C30.2454 13.9135 29.5672 13.4317 29.3236 12.6511L26.9371 13.3961ZM29.3236 12.6511C28.0676 8.62782 22.5336 8.62782 21.2776 12.6511L23.6641 13.3961C24.1895 11.7128 26.4117 11.7128 26.9371 13.3961L29.3236 12.6511ZM19.6211 38.1901L15.8267 44.8123L17.9959 46.0552L21.7903 39.433L19.6211 38.1901ZM4.41742 38.1559L8.21183 31.5337L6.04268 30.2909L2.24827 36.913L4.41742 38.1559ZM14.0266 44.6811L13.4999 43.1284L11.1324 43.9316L11.6591 45.4842L14.0266 44.6811ZM7.02357 39.3663L5.42576 39.683L5.91178 42.1353L7.50958 41.8186L7.02357 39.3663ZM13.4999 43.1284C13.2116 42.2787 12.9601 41.5302 12.6788 40.9509C12.3829 40.3412 11.9879 39.7729 11.331 39.3907L10.0739 41.5516C10.1346 41.5869 10.2477 41.6676 10.4299 42.0427C10.6267 42.4482 10.8233 43.0204 11.1324 43.9316L13.4999 43.1284ZM7.50958 41.8186C8.44793 41.6326 9.0363 41.5185 9.48141 41.4876C9.89143 41.4592 10.0143 41.517 10.0739 41.5516L11.331 39.3907C10.673 39.0079 9.98406 38.9468 9.30859 38.9936C8.66821 39.038 7.89743 39.1931 7.02357 39.3663L7.50958 41.8186ZM2.24827 36.913C1.73357 37.8113 1.27593 38.6038 1.01904 39.2473C0.773831 39.8616 0.52252 40.7932 1.1111 41.6435L3.16669 40.2206C3.3434 40.4759 3.15379 40.6429 3.34088 40.1742C3.5163 39.7348 3.86156 39.126 4.41742 38.1559L2.24827 36.913ZM5.42576 39.683C4.34414 39.8973 3.67364 40.0269 3.21625 40.0498C2.73339 40.074 2.97966 39.9504 3.16669 40.2206L1.1111 41.6435C1.71001 42.5087 2.68188 42.5797 3.34133 42.5466C4.02624 42.5123 4.91474 42.3329 5.91177 42.1353L5.42576 39.683ZM15.8267 44.8123C15.2708 45.7825 14.9203 46.388 14.6306 46.7604C14.3199 47.1598 14.3749 46.9013 14.6956 46.929L14.4807 49.4197C15.5187 49.5093 16.2 48.8147 16.6039 48.2953C17.0288 47.7491 17.4813 46.9533 17.9959 46.0552L15.8267 44.8123ZM11.6591 45.4842C11.9881 46.4538 12.2775 47.3169 12.5895 47.9298C12.8876 48.5154 13.4316 49.3292 14.4807 49.4197L14.6956 46.929C15.0272 46.9576 15.0413 47.2355 14.8174 46.7957C14.6075 46.3832 14.3829 45.7313 14.0266 44.6811L11.6591 45.4842ZM8.21183 31.5337C9.12595 29.9384 9.57105 29.1738 10.0025 28.6789L8.11797 27.0362C7.4835 27.764 6.89657 28.8006 6.04268 30.2909L8.21183 31.5337ZM21.7903 39.433C22.2454 38.6387 22.6189 37.9873 22.9084 37.4351L20.6943 36.2742C20.4314 36.7756 20.0849 37.3808 19.6211 38.1901L21.7903 39.433ZM28.2097 39.433L32.0041 46.0552L34.1733 44.8123L30.3789 38.1901L28.2097 39.433ZM47.7517 36.913L43.9573 30.2908L41.7882 31.5337L45.5826 38.1559L47.7517 36.913ZM38.3409 45.4842L38.8676 43.9316L36.5001 43.1284L35.9734 44.6811L38.3409 45.4842ZM42.4904 41.8186L44.0882 42.1353L44.5742 39.683L42.9764 39.3663L42.4904 41.8186ZM38.8676 43.9316C39.1767 43.0204 39.3733 42.4482 39.5701 42.0427C39.7523 41.6676 39.8654 41.5869 39.9261 41.5516L38.669 39.3907C38.0121 39.7729 37.6171 40.3412 37.3211 40.9509C37.0399 41.5303 36.7884 42.2787 36.5001 43.1284L38.8676 43.9316ZM42.9764 39.3663C42.1026 39.1931 41.3318 39.038 40.6914 38.9936C40.0159 38.9468 39.327 39.0079 38.669 39.3907L39.9261 41.5516C39.9857 41.517 40.1086 41.4592 40.5186 41.4876C40.9637 41.5185 41.5521 41.6326 42.4904 41.8186L42.9764 39.3663ZM45.5826 38.1559C46.1384 39.126 46.4837 39.7348 46.6591 40.1742C46.8462 40.6429 46.6566 40.4759 46.8333 40.2206L48.8889 41.6435C49.4775 40.7932 49.2262 39.8616 48.981 39.2473C48.7241 38.6038 48.2664 37.8113 47.7517 36.913L45.5826 38.1559ZM44.0882 42.1353C45.0853 42.3329 45.9738 42.5123 46.6587 42.5466C47.3181 42.5797 48.29 42.5087 48.8889 41.6435L46.8333 40.2206C47.0203 39.9504 47.2666 40.074 46.7838 40.0498C46.3264 40.0269 45.6559 39.8973 44.5742 39.683L44.0882 42.1353ZM32.0041 46.0552C32.5187 46.9533 32.9712 47.7491 33.3961 48.2953C33.8 48.8147 34.4813 49.5093 35.5193 49.4197L35.3044 46.929C35.6251 46.9013 35.6801 47.1598 35.3694 46.7604C35.0797 46.388 34.7292 45.7825 34.1733 44.8123L32.0041 46.0552ZM35.9734 44.6811C35.6171 45.7313 35.3925 46.3832 35.1826 46.7957C34.9587 47.2355 34.9728 46.9576 35.3044 46.929L35.5193 49.4197C36.5683 49.3292 37.1124 48.5154 37.4105 47.9298C37.7225 47.3169 38.0119 46.4538 38.3409 45.4842L35.9734 44.6811ZM30.3789 38.1901C29.9098 37.3714 29.5607 36.7617 29.2969 36.2574L27.0816 37.416C27.3727 37.9726 27.7496 38.6299 28.2097 39.433L30.3789 38.1901ZM10.9286 26.7594C9.867 24.6007 9.26945 22.1676 9.26945 19.59H6.76945C6.76945 22.558 7.45829 25.3678 8.6852 27.8626L10.9286 26.7594ZM25.3006 35.7528C24.2319 35.7528 23.1889 35.6475 22.1806 35.4471L21.6932 37.8992C22.861 38.1313 24.0673 38.2528 25.3006 38.2528V35.7528ZM22.1806 35.4471C17.2404 34.4651 13.1075 31.1903 10.9286 26.7594L8.6852 27.8626C11.1978 32.9719 15.968 36.7611 21.6932 37.8992L22.1806 35.4471ZM22.8027 37.6028L22.9383 37.4213L20.9356 35.925L20.8 36.1065L22.8027 37.6028ZM27.9803 35.5282C27.1097 35.6758 26.2146 35.7528 25.3006 35.7528V38.2528C26.3552 38.2528 27.3902 38.164 28.3982 37.993L27.9803 35.5282ZM29.4393 36.8367V36.7606H26.9393V36.8367H29.4393ZM41.3318 19.59C41.3318 22.2633 40.689 24.7812 39.5523 26.999L41.7771 28.1393C43.0907 25.5764 43.8318 22.6684 43.8318 19.59H41.3318ZM39.5523 26.999C37.277 31.4382 33.0245 34.6729 27.9803 35.5282L28.3982 37.993C34.2445 37.0017 39.1537 33.2577 41.7771 28.1393L39.5523 26.999ZM43.9573 30.2909C42.968 28.5643 42.3353 27.4335 41.5264 26.6637L39.8029 28.4747C40.2806 28.9292 40.709 29.6503 41.7882 31.5337L43.9573 30.2909ZM10.0025 28.6789C10.0598 28.6132 10.1661 28.5289 10.3658 28.4291L9.24804 26.1929C8.89047 26.3716 8.47002 26.6323 8.11797 27.0362L10.0025 28.6789Z" fill="#60101D"/>
</svg>
