<svg width="170" height="60" viewBox="0 0 170 60" fill="none" xmlns="http://www.w3.org/2000/svg">
<path fill-rule="evenodd" clip-rule="evenodd" d="M23.6006 0.973086C31.901 6.42059 35.3843 17.2799 31.6969 26.214C30.7097 28.6062 29.683 30.2359 27.2575 33.2624C25.0242 36.0486 24.0444 37.7404 23.4957 39.7568C22.3983 43.7894 23.0115 47.9326 25.2211 51.414C25.6591 52.1038 25.9677 52.6714 25.9073 52.6754C25.8469 52.6794 24.8807 52.4506 23.76 52.1671C20.7197 51.3975 18.9785 50.5577 18.2335 49.5013C16.0843 46.4541 13.9512 41.593 13.2422 38.1266C12.6809 35.3814 12.6067 30.637 13.0854 28.0914C13.8863 23.8342 15.6541 19.6191 18.0353 16.2889C20.6085 12.6908 22.199 9.25585 22.5825 6.46923C22.8272 4.68993 22.6222 2.03373 22.1539 0.917738C21.9446 0.419111 21.8472 0.00603003 21.9374 6.03277e-05C22.0275 -0.00590937 22.7759 0.431933 23.6006 0.973086ZM36.4157 18.9663C38.0494 20.7895 39.3711 22.9916 40.2648 25.3802C40.8478 26.9385 41.2195 27.4766 41.3943 30.446C41.3794 34.0278 41.2952 34.358 40.8337 36.1539C39.6214 40.8733 37.4921 44.0098 33.1412 47.4858C31.6135 48.7061 29.893 50.2331 29.3175 50.8789L28.8641 51.3877C28.5458 51.7449 27.994 51.7477 27.6723 51.3936C25.8186 49.3526 24.7486 46.6406 24.8826 44.3221C25.0782 40.931 26.6473 37.7627 30.1246 33.7386C34.2461 28.9686 35.6808 25.8022 35.5965 21.6625C35.5672 20.2376 35.4169 18.937 35.2279 18.4775C35.0522 18.0505 34.9495 17.6529 34.9996 17.5944C35.0498 17.5357 35.6868 18.1531 36.4157 18.9663ZM7.49565 24.3529C8.06324 24.4184 9.0508 24.7932 9.69005 25.1861C10.8497 25.8984 10.8524 25.9032 10.7716 27.0538C10.1769 35.5248 11.0783 40.5323 14.3024 46.6709C15.0962 47.8684 16.7286 49.6009 16.6545 49.6058C16.2289 49.6339 11.697 46.434 10.3707 45.125C7.91483 42.7016 6.20065 39.4688 5.25582 35.478C4.64562 31.9141 3.07972 29.8193 0.358768 28.6438C-0.100983 28.4378 -0.124123 27.7844 0.319881 27.5455L0.858582 27.2557C1.75781 26.7722 2.64907 26.2583 2.83918 26.114C4.77237 24.6465 6.00407 24.1807 7.49565 24.3529ZM32.6448 50.2617C35.3143 50.2444 37.9047 51.1912 40.3992 52.1637C43.2448 53.273 46.6677 54.6593 46.6839 54.9149C46.6909 55.0261 46.3175 55.5068 45.854 55.9834C43.8996 57.9937 42.3359 58.0505 39.794 58.5814C38.8734 58.7735 37.9152 58.5948 37.1219 58.083L36.3167 57.5634C35.1937 56.8387 33.035 54.9367 31.815 54.4041L31.4959 54.2647C30.556 53.8543 30.2807 52.6346 30.9506 51.8497C31.6953 50.9772 32.4575 50.2627 32.6448 50.2617Z" fill="white"/>
<path d="M79.1302 26.2926H68.6025V24.6162H70.2937C70.2937 21.9225 69.8286 19.9738 68.8985 18.7702C68.1656 17.8246 67.1932 17.3517 65.9811 17.3517C64.6564 17.3517 63.5853 17.9249 62.7679 19.0711C61.6968 20.5899 61.1613 22.9398 61.1613 26.1207C61.1613 27.7255 61.274 29.2586 61.4995 30.7201C61.725 32.1816 62.1055 34.0586 62.641 36.3511C63.2048 38.6437 63.4866 40.5493 63.4866 42.0681C63.4866 42.412 63.4444 42.7273 63.3598 43.0138C63.3034 43.3004 63.2471 43.5583 63.1907 43.7876L63.0216 44.3893C63.1907 44.5326 63.5007 44.6043 63.9517 44.6043C65.4738 44.6043 66.9113 43.5726 68.2643 41.5093C69.6454 39.4461 70.336 37.1678 70.336 34.6747C70.336 34.1875 70.3219 33.8293 70.2937 33.6001H68.6025V31.8807H79.1302V33.6001H77.4813C77.4813 36.9529 75.9733 39.8473 72.9573 42.2831C70.1668 44.547 67.1368 45.6789 63.8672 45.6789C63.0779 45.6789 62.5001 45.6359 62.1337 45.5499C61.7954 45.4926 61.3867 45.3637 60.9076 45.1631V44.6043C60.9076 43.7446 60.6962 42.9278 60.2734 42.1541C59.8788 41.3804 58.9063 39.9762 57.3561 37.9416C55.9749 36.1649 55.0448 34.5028 54.5656 32.9553C54.2556 31.9523 54.1005 30.7487 54.1005 29.3446V28.2699C54.1005 24.4586 55.3266 21.3637 57.7789 18.9852C60.0902 16.7499 62.9652 15.6323 66.4039 15.6323C70.1246 15.6323 72.9714 16.7643 74.9445 19.0281C76.241 20.5183 77.0866 22.381 77.4813 24.6162H79.1302V26.2926Z" fill="white"/>
<path d="M98.7989 27.6252L99.8136 28.8717C99.1653 29.3302 98.517 29.6884 97.8687 29.9464C97.2486 30.2043 96.6567 30.3332 96.093 30.3332C95.4729 30.3332 94.8668 30.147 94.2749 29.7744C93.7112 29.3732 93.1756 28.8861 92.6683 28.3129C92.1609 27.7111 91.8368 27.3386 91.6959 27.1953C91.3012 26.8514 90.9066 26.6795 90.512 26.6795C89.2718 26.6795 88.4121 27.6968 87.933 29.7314C87.5947 31.1356 87.4256 32.9123 87.4256 35.0616C88.0457 34.5744 88.8772 34.0872 89.9201 33.6001C91.1321 33.027 92.0764 32.7404 92.7528 32.7404C93.2602 32.7404 93.7817 32.8407 94.3172 33.0413C94.8527 33.2419 95.3742 33.4998 95.8816 33.815C96.3889 34.1302 96.7553 34.2878 96.9808 34.2878C97.2345 34.2878 97.4882 34.2305 97.7419 34.1159C97.9955 34.0013 98.2492 33.8437 98.5029 33.6431L99.3062 34.7177C98.8552 35.2622 98.4747 35.6777 98.1647 35.9643C97.8828 36.2222 97.5023 36.5231 97.0231 36.867C96.5721 37.2108 96.2057 37.4401 95.9238 37.5547C95.6702 37.6693 95.3742 37.7267 95.036 37.7267C94.585 37.7267 94.2608 37.6837 94.0635 37.5977C93.8944 37.5117 93.5984 37.3255 93.1756 37.0389C92.7528 36.7523 92.3301 36.4944 91.9073 36.2652C91.2872 35.9213 90.7093 35.7493 90.1738 35.7493C89.5819 35.7493 89.004 35.907 88.4403 36.2222C88.1584 36.3941 87.8343 36.6377 87.4679 36.9529C87.4679 39.0162 87.947 40.7499 88.9054 42.1541C89.8919 43.5583 91.2731 44.2604 93.0488 44.2604C93.8098 44.2604 94.5991 44.1171 95.4165 43.8305C96.2339 43.5153 97.1781 42.9565 98.2492 42.1541L98.968 43.0138C98.1506 43.9308 97.1359 44.6759 95.9238 45.249C94.7118 45.8508 93.3307 46.1517 91.7804 46.1517C89.3564 46.1517 87.2706 45.5643 85.523 44.3893C83.0426 42.6986 81.8024 40.0622 81.8024 36.4801V35.1046C81.8024 32.8693 82.4648 30.7774 83.7895 28.8287C85.4244 26.4216 87.6229 25.218 90.3852 25.218C91.6254 25.218 92.8656 25.4759 94.1058 25.9917C94.7259 26.2496 95.501 26.6652 96.4312 27.2383C97.0231 27.6968 97.5164 27.9261 97.911 27.9261C98.221 27.9261 98.517 27.8258 98.7989 27.6252Z" fill="white"/>
<path d="M107.874 25.8198H111.003C111.539 25.8198 111.863 25.9201 111.976 26.1207C112.088 26.3213 112.201 26.9661 112.314 28.055C112.427 29.1153 112.652 30.4622 112.99 32.0956C113.329 33.7004 113.92 36.1649 114.766 39.489C114.963 38.0849 115.316 36.6807 115.823 35.2765C116.105 34.4741 116.443 33.6717 116.838 32.8693C117.063 32.3822 117.289 31.8377 117.514 31.2359C117.768 30.6055 117.895 30.104 117.895 29.7314C117.895 28.7571 117.838 27.9547 117.726 27.3243C117.641 26.6652 117.599 26.2353 117.599 26.0347C117.599 25.8914 117.754 25.8198 118.064 25.8198H118.487H121.785C122.517 25.8198 122.912 26.0347 122.968 26.4646C123.335 30.6484 123.828 33.8723 124.448 36.1362C124.984 38.0562 125.843 40.3058 127.027 42.8849C127.112 43.1141 127.182 43.329 127.239 43.5296C127.323 43.7302 127.365 43.9452 127.365 44.1744C127.365 44.4037 127.323 44.5613 127.239 44.6473C127.154 44.7332 126.9 44.7762 126.478 44.7762H123.772C122.813 44.7762 121.813 43.3004 120.77 40.3487C120.009 38.2281 119.459 36.1076 119.121 33.987L118.783 32.3105C117.993 34.0586 117.331 35.9213 116.796 37.8986C116.26 39.8473 115.992 41.5237 115.992 42.9279V43.7876C116.02 43.9308 116.02 44.1314 115.992 44.3893C115.964 44.6473 115.851 44.7762 115.654 44.7762H112.568C112.117 44.7762 111.835 44.7332 111.722 44.6473C111.412 44.418 111.102 43.8305 110.792 42.8849C110.313 41.3087 109.89 39.747 109.523 38.1995C109.044 36.1649 108.523 33.6861 107.959 30.7631C106.86 32.1672 105.986 33.7004 105.338 35.3625C104.689 37.0246 104.365 38.615 104.365 40.1338C104.365 40.707 104.45 41.3087 104.619 41.9392C104.703 42.2831 104.859 42.7559 105.084 43.3577C105.169 43.6156 105.253 43.8592 105.338 44.0884C105.422 44.3177 105.465 44.461 105.465 44.5183C105.465 44.6902 105.324 44.7762 105.042 44.7762H101.575C101.321 44.7762 101.138 44.6043 101.025 44.2604C100.941 43.9165 100.898 43.4867 100.898 42.9708C100.898 41.538 101.335 39.8329 102.209 37.8556C102.801 36.5374 103.534 35.1762 104.408 33.772C105.14 32.5684 105.648 31.6944 105.93 31.1499C106.606 29.8604 106.944 28.7714 106.944 27.8831C106.916 27.7111 106.902 27.5678 106.902 27.4532C106.846 27.1093 106.817 26.8658 106.817 26.7225C106.817 26.6078 106.846 26.4646 106.902 26.2926C106.958 26.1207 107.029 26.0061 107.113 25.9487C107.226 25.8628 107.48 25.8198 107.874 25.8198Z" fill="white"/>
<path d="M141.963 44.7762H131.562C131.083 44.7762 130.73 44.6473 130.505 44.3893C130.279 44.1314 130.167 43.7302 130.167 43.1858V37.7696C130.167 32.3249 130.251 28.972 130.42 27.7111C130.589 26.4216 131.054 25.7768 131.815 25.7768L133.042 25.8198H133.718C133.887 25.8198 134.07 25.8198 134.268 25.8198C134.55 25.7625 134.747 25.7338 134.86 25.7338H135.325C135.522 25.7625 135.649 25.8341 135.705 25.9487C135.79 26.0634 135.832 26.1923 135.832 26.3356C135.832 26.5649 135.762 27.0377 135.621 27.7541C135.48 28.4419 135.367 29.3302 135.282 30.4192C135.198 31.4795 135.156 32.4681 135.156 33.3852V34.2878C136.706 34.2878 138.186 34.4884 139.595 34.8896C141.032 35.2622 142.287 35.8783 143.358 36.738C144.57 37.7123 145.444 38.8729 145.979 40.2198C146.346 41.1655 146.529 42.1541 146.529 43.1858C146.529 43.9595 146.261 44.461 145.725 44.6902C145.444 44.8049 144.95 44.8622 144.246 44.8622H143.569L142.893 44.8192L141.963 44.7762ZM135.156 43.4007H139.722L140.398 43.3577L140.441 42.0681C140.441 40.7499 140.173 39.6467 139.637 38.7583C138.763 37.2681 137.255 36.3941 135.113 36.1362C135.085 36.3655 135.057 36.6234 135.029 36.9099C135.029 37.1678 135.029 37.3971 135.029 37.5977V38.2855C135.029 39.2598 135.043 40.3344 135.071 41.5093C135.127 42.6843 135.156 43.3147 135.156 43.4007Z" fill="white"/>
<path d="M156.008 25.8198H166.113L167.339 25.7768C167.649 25.7768 167.804 25.9774 167.804 26.3786L167.678 28.8717C167.678 30.6484 167.621 32.4395 167.508 34.2449C167.396 36.0502 167.339 37.0676 167.339 37.2968C167.339 37.7553 167.396 38.7153 167.508 40.1768C167.621 41.6096 167.706 42.5696 167.762 43.0568C167.819 43.544 167.847 43.8735 167.847 44.0455C167.847 44.2747 167.72 44.461 167.466 44.6043C167.241 44.7189 166.79 44.7762 166.113 44.7762H163.999C163.295 44.7762 162.872 44.4896 162.731 43.9165C162.618 43.3147 162.562 41.624 162.562 38.8443L162.435 35.7923C160.659 36.1935 159.292 36.9816 158.334 38.1565C157.404 39.3028 156.939 40.8789 156.939 42.8849C156.939 43.6299 156.854 44.1028 156.685 44.3034C156.403 44.6186 155.727 44.7762 154.655 44.7762H153.049C152.034 44.7762 151.386 44.7046 151.104 44.5613C150.85 44.418 150.723 44.1458 150.723 43.7446C150.723 42.1971 151.456 40.5493 152.922 38.8013C154.698 36.6807 156.882 35.4628 159.475 35.1475V34.9326C157.136 34.4455 155.388 33.8293 154.233 33.0843C152.654 32.024 151.865 30.5768 151.865 28.7428C151.865 27.4819 152.231 26.6508 152.964 26.2496C153.5 25.9631 154.514 25.8198 156.008 25.8198ZM160.49 27.1523C159.137 27.1523 158.291 27.2956 157.953 27.5822C157.643 27.8687 157.488 28.4419 157.488 29.3016C157.488 30.7058 157.967 31.8664 158.926 32.7834C159.884 33.7004 161.082 34.1589 162.519 34.1589C162.519 31.7231 162.618 29.3875 162.815 27.1523H160.49Z" fill="white"/>
<path d="M57.6943 59.9107H58.8228V57.7017H60.0152C61.454 57.7017 62.2267 56.7951 62.2267 55.5374C62.2267 54.2892 61.4631 53.3731 60.0304 53.3731H57.6943V59.9107ZM58.8228 56.7281V54.3627H59.857C60.7027 54.3627 61.0768 54.8415 61.0768 55.5374C61.0768 56.2333 60.7027 56.7281 59.8631 56.7281H58.8228Z" fill="white"/>
<path d="M63.2039 53.3731V59.9107H64.2077L67.1431 55.4576H67.1948V59.9107H68.3233V53.3731H67.3134L64.3811 57.8294H64.3263V53.3731H63.2039Z" fill="white"/>
<path d="M69.2823 54.3659H71.2078V59.9107H72.3272V54.3659H74.2527V53.3731H69.2823V54.3659Z" fill="white"/>
<path d="M75.7675 60.0001H76.2116C77.2094 60.0001 77.5774 59.3936 77.8725 58.7041L80.0201 53.3731H78.8581L77.5166 56.8717L75.9652 53.3731H74.785L77.0116 58.1805L76.9295 58.4008C76.8018 58.7679 76.6071 59.0041 76.1234 59.0041H75.7675V60.0001Z" fill="white"/>
<path d="M80.9881 59.9107L81.5022 58.2987H83.8444L84.3616 59.9107H85.5661L83.3699 53.3731H81.9767L79.7835 59.9107H80.9881ZM81.8064 57.3474L82.649 54.7138H82.6977L83.5403 57.3474H81.8064Z" fill="white"/>
<path d="M85.9821 59.9107H86.2863C87.7433 59.9107 88.1479 58.8796 88.2361 56.7313L88.3335 54.3467H90.259V59.9107H91.3632V53.3731H87.281L87.1776 56.3642C87.1106 58.2189 86.8734 58.8765 86.1585 58.918L85.9821 58.9275V59.9107Z" fill="white"/>
<path d="M93.7373 55.8981V53.3731H92.6058V59.9107H94.9389C96.3716 59.9107 97.2264 59.0776 97.2264 57.8741C97.2264 56.6738 96.3716 55.8981 94.9389 55.8981H93.7373ZM93.7373 56.8622H94.9389C95.6933 56.8622 96.11 57.3091 96.11 57.8613C96.11 58.4359 95.6933 58.9403 94.9389 58.9403H93.7373V56.8622Z" fill="white"/>
<path d="M98.3237 59.9107H99.4523V57.1335H102.339V59.9107H103.471V53.3731H102.339V56.1407H99.4523V53.3731H98.3237V59.9107Z" fill="white"/>
<path d="M110.265 56.6419C110.265 54.5287 109.036 53.2837 107.402 53.2837C105.766 53.2837 104.54 54.5287 104.54 56.6419C104.54 58.752 105.766 60.0001 107.402 60.0001C109.036 60.0001 110.265 58.7551 110.265 56.6419ZM109.13 56.6419C109.13 58.1295 108.418 58.9371 107.402 58.9371C106.389 58.9371 105.674 58.1295 105.674 56.6419C105.674 55.1543 106.389 54.3467 107.402 54.3467C108.418 54.3467 109.13 55.1543 109.13 56.6419Z" fill="white"/>
<path d="M111.332 59.9107H115.408V58.918H112.46V57.1335H115.173V56.1407H112.46V54.3659H115.383V53.3731H111.332V59.9107Z" fill="white"/>
<path d="M119.459 59.9107L119.973 58.2987H122.316L122.833 59.9107H124.037L121.841 53.3731H120.448L118.255 59.9107H119.459ZM120.278 57.3474L121.12 54.7138H121.169L122.011 57.3474H120.278Z" fill="white"/>
<path d="M128.864 53.3731H124.858V59.9107H125.986V54.3659H128.864V53.3731Z" fill="white"/>
<path d="M129.818 59.9107H133.895V58.918H130.947V57.1335H133.66V56.1407H130.947V54.3659H133.87V53.3731H129.818V59.9107Z" fill="white"/>
<path d="M135.022 59.9107H136.15V57.1335H139.037V59.9107H140.168V53.3731H139.037V56.1407H136.15V53.3731H135.022V59.9107Z" fill="white"/>
<path d="M141.122 54.3659H143.048V59.9107H144.167V54.3659H146.092V53.3731H141.122V54.3659Z" fill="white"/>
<path d="M152.115 55.5789C151.924 54.1264 150.859 53.2837 149.478 53.2837C147.851 53.2837 146.625 54.5287 146.625 56.6419C146.625 58.752 147.835 60.0001 149.478 60.0001C150.959 60.0001 151.942 58.9946 152.115 57.7464L150.978 57.74C150.835 58.5062 150.238 58.9371 149.493 58.9371C148.483 58.9371 147.759 58.1422 147.759 56.6419C147.759 55.1671 148.477 54.3467 149.496 54.3467C150.254 54.3467 150.847 54.7968 150.978 55.5789H152.115Z" fill="white"/>
<path d="M152.875 54.3659H154.801V59.9107H155.92V54.3659H157.845V53.3731H152.875V54.3659Z" fill="white"/>
<path d="M158.804 59.9107H161.325C162.752 59.9107 163.452 59.1478 163.452 58.1295C163.452 57.1399 162.782 56.5589 162.119 56.5238V56.4599C162.728 56.3099 163.208 55.863 163.208 55.0681C163.208 54.0945 162.539 53.3731 161.188 53.3731H158.804V59.9107ZM159.932 58.9211V57.0058H161.176C161.873 57.0058 162.305 57.4527 162.305 58.0369C162.305 58.5572 161.964 58.9211 161.146 58.9211H159.932ZM159.932 56.1535V54.3499H161.073C161.736 54.3499 162.08 54.717 162.08 55.2214C162.08 55.796 161.636 56.1535 161.049 56.1535H159.932Z" fill="white"/>
<path d="M170 56.6419C170 54.5287 168.771 53.2837 167.138 53.2837C165.501 53.2837 164.275 54.5287 164.275 56.6419C164.275 58.752 165.501 60.0001 167.138 60.0001C168.771 60.0001 170 58.7551 170 56.6419ZM168.865 56.6419C168.865 58.1295 168.154 58.9371 167.138 58.9371C166.125 58.9371 165.41 58.1295 165.41 56.6419C165.41 55.1543 166.125 54.3467 167.138 54.3467C168.154 54.3467 168.865 55.1543 168.865 56.6419Z" fill="white"/>
</svg>
