<svg width="170" height="58" viewBox="0 0 170 58" fill="none" xmlns="http://www.w3.org/2000/svg">
<path fill-rule="evenodd" clip-rule="evenodd" d="M24.4815 1.38069C32.7818 6.68681 36.2651 17.2643 32.5777 25.9665C31.5906 28.2966 30.5639 29.884 28.1383 32.8319C25.905 35.5459 24.9253 37.1937 24.3766 39.1578C23.2792 43.0857 23.8924 47.1214 26.1019 50.5124C26.5399 51.1843 26.8485 51.7372 26.7881 51.7411C26.7278 51.745 25.7615 51.5221 24.6409 51.246C21.6006 50.4964 19.8593 49.6784 19.1144 48.6493C16.9651 45.6812 14.8321 40.9463 14.1231 37.5699C13.5618 34.896 13.4875 30.2747 13.9663 27.7952C14.7671 23.6484 16.535 19.5427 18.9162 16.299C21.4894 12.7942 23.0798 9.44849 23.4634 6.73419C23.708 5.00107 23.5031 2.41381 23.0347 1.32678C22.8254 0.841095 22.728 0.438735 22.8182 0.43292C22.9084 0.427105 23.6568 0.853584 24.4815 1.38069ZM37.2965 18.9069C38.9302 20.6828 40.2519 22.8277 41.1456 25.1544C41.7287 26.6722 42.1004 27.1964 42.2751 30.0887C42.2603 33.5775 42.176 33.8991 41.7146 35.6484C40.5022 40.2453 38.3729 43.3005 34.022 46.6862C32.4944 47.8748 30.7739 49.3622 30.1984 49.9912L29.7449 50.4869C29.4266 50.8348 28.8749 50.8375 28.5532 50.4926C26.6995 48.5046 25.6295 45.8629 25.7635 43.6046C25.9591 40.3016 27.5282 37.2155 31.0055 33.2958C35.127 28.6496 36.5617 25.5654 36.4774 21.5331C36.4481 20.1452 36.2977 18.8784 36.1088 18.4308C35.933 18.0149 35.8303 17.6276 35.8805 17.5706C35.9306 17.5134 36.5677 18.1148 37.2965 18.9069ZM8.37652 24.1537C8.9441 24.2175 9.93167 24.5826 10.5709 24.9653C11.7305 25.6591 11.7333 25.6638 11.6525 26.7845C11.0578 35.0356 11.9592 39.9131 15.1833 45.8925C15.977 47.0589 17.6095 48.7464 17.5354 48.7512C17.1097 48.7786 12.5779 45.6617 11.2515 44.3867C8.7957 42.0262 7.08152 38.8773 6.13668 34.99C5.52649 31.5187 3.96059 29.4783 1.23964 28.3332C0.779884 28.1326 0.756748 27.4962 1.20075 27.2635L1.73945 26.9811C2.63868 26.5102 3.52993 26.0097 3.72005 25.8691C5.65324 24.4396 6.88493 23.986 8.37652 24.1537ZM33.5257 49.3901C36.1952 49.3732 38.7855 50.2955 41.2801 51.2427C44.1256 52.3232 47.5486 53.6735 47.5647 53.9225C47.5718 54.0308 47.1984 54.4991 46.7349 54.9632C44.7805 56.9213 43.2168 56.9767 40.6749 57.4938C39.7542 57.681 38.796 57.5069 38.0028 57.0084L37.1975 56.5023C36.0746 55.7964 33.9158 53.9437 32.6959 53.4249L32.3767 53.2892C31.4369 52.8894 31.1615 51.7014 31.8315 50.9368C32.5762 50.087 33.3384 49.391 33.5257 49.3901Z" fill="url(#paint0_linear_82_98)"/>
<path d="M80.011 25.849H69.4834V24.2285H71.1745C71.1745 21.6245 70.7095 19.7408 69.7793 18.5774C69.0465 17.6632 68.074 17.2062 66.862 17.2062C65.5372 17.2062 64.4662 17.7602 63.6487 18.8682C62.5777 20.3364 62.0421 22.6079 62.0421 25.6828C62.0421 27.2341 62.1549 28.7161 62.3803 30.1289C62.6058 31.5417 62.9864 33.3561 63.5219 35.5723C64.0856 37.7884 64.3675 39.6305 64.3675 41.0987C64.3675 41.4311 64.3252 41.7358 64.2407 42.0128C64.1843 42.2899 64.1279 42.5392 64.0715 42.7608L63.9024 43.3425C64.0715 43.481 64.3816 43.5503 64.8326 43.5503C66.3546 43.5503 67.7922 42.553 69.1451 40.5585C70.5263 38.564 71.2168 36.3617 71.2168 33.9517C71.2168 33.4808 71.2027 33.1345 71.1745 32.9129H69.4834V31.2508H80.011V32.9129H78.3621C78.3621 36.154 76.8541 38.9518 73.8382 41.3065C71.0477 43.4949 68.0177 44.5891 64.748 44.5891C63.9588 44.5891 63.381 44.5475 63.0145 44.4644C62.6763 44.409 62.2676 44.2844 61.7884 44.0905V43.5503C61.7884 42.7192 61.577 41.9297 61.1542 41.1818C60.7596 40.4339 59.7872 39.0765 58.2369 37.1097C56.8558 35.3922 55.9256 33.7855 55.4465 32.2896C55.1364 31.3201 54.9814 30.1566 54.9814 28.7992V27.7604C54.9814 24.0761 56.2075 21.0844 58.6597 18.7851C60.971 16.6244 63.846 15.5441 67.2848 15.5441C71.0054 15.5441 73.8523 16.6383 75.8253 18.8267C77.1219 20.2672 77.9675 22.0678 78.3621 24.2285H80.011V25.849Z" fill="url(#paint1_linear_82_98)"/>
<path d="M99.6797 27.1371L100.694 28.3422C100.046 28.7854 99.3978 29.1317 98.7496 29.381C98.1294 29.6303 97.5375 29.7549 96.9738 29.7549C96.3537 29.7549 95.7477 29.5749 95.1558 29.2148C94.592 28.8269 94.0565 28.356 93.5491 27.802C93.0418 27.2202 92.7176 26.8601 92.5767 26.7216C92.1821 26.3892 91.7875 26.223 91.3929 26.223C90.1527 26.223 89.293 27.2064 88.8138 29.1732C88.4756 30.5306 88.3064 32.2481 88.3064 34.3257C88.9265 33.8548 89.758 33.3838 90.801 32.9129C92.013 32.3589 92.9572 32.0819 93.6337 32.0819C94.1411 32.0819 94.6625 32.1788 95.1981 32.3727C95.7336 32.5666 96.2551 32.816 96.7624 33.1207C97.2698 33.4254 97.6362 33.5777 97.8617 33.5777C98.1154 33.5777 98.369 33.5223 98.6227 33.4115C98.8764 33.3007 99.1301 33.1484 99.3838 32.9545L100.187 33.9933C99.7361 34.5196 99.3556 34.9213 99.0455 35.1983C98.7636 35.4476 98.3831 35.7385 97.904 36.0709C97.453 36.4033 97.0865 36.6249 96.8047 36.7357C96.551 36.8465 96.2551 36.9019 95.9168 36.9019C95.4658 36.9019 95.1417 36.8604 94.9444 36.7773C94.7753 36.6942 94.4793 36.5141 94.0565 36.2371C93.6337 35.9601 93.2109 35.7108 92.7881 35.4891C92.168 35.1567 91.5902 34.9905 91.0546 34.9905C90.4627 34.9905 89.8849 35.1429 89.3212 35.4476C89.0393 35.6138 88.7152 35.8493 88.3487 36.154C88.3487 38.1485 88.8279 39.8244 89.7862 41.1818C90.7728 42.5392 92.1539 43.2179 93.9297 43.2179C94.6907 43.2179 95.4799 43.0794 96.2973 42.8023C97.1147 42.4976 98.059 41.9574 99.1301 41.1818L99.8488 42.0128C99.0314 42.8993 98.0167 43.6195 96.8047 44.1736C95.5927 44.7553 94.2115 45.0462 92.6613 45.0462C90.2372 45.0462 88.1514 44.4783 86.4039 43.3425C83.9234 41.7081 82.6832 39.1596 82.6832 35.6969V34.3672C82.6832 32.2065 83.3456 30.1843 84.6704 28.3006C86.3052 25.9737 88.5037 24.8102 91.266 24.8102C92.5062 24.8102 93.7464 25.0595 94.9866 25.5582C95.6068 25.8075 96.3819 26.2091 97.312 26.7632C97.904 27.2064 98.3972 27.428 98.7918 27.428C99.1019 27.428 99.3978 27.3311 99.6797 27.1371Z" fill="url(#paint2_linear_82_98)"/>
<path d="M108.755 25.3919H111.884C112.42 25.3919 112.744 25.4889 112.856 25.6828C112.969 25.8767 113.082 26.5 113.195 27.5527C113.307 28.5776 113.533 29.8796 113.871 31.4586C114.209 33.0099 114.801 35.3922 115.647 38.6056C115.844 37.2482 116.197 35.8908 116.704 34.5334C116.986 33.7578 117.324 32.9822 117.719 32.2065C117.944 31.7356 118.17 31.2093 118.395 30.6275C118.649 30.0181 118.776 29.5333 118.776 29.1732C118.776 28.2314 118.719 27.4557 118.607 26.8463C118.522 26.2091 118.48 25.7936 118.48 25.5997C118.48 25.4612 118.635 25.3919 118.945 25.3919H119.368H122.665C123.398 25.3919 123.793 25.5997 123.849 26.0152C124.216 30.0597 124.709 33.1761 125.329 35.3645C125.865 37.2205 126.724 39.3951 127.908 41.8882C127.993 42.1098 128.063 42.3176 128.119 42.5115C128.204 42.7054 128.246 42.9131 128.246 43.1348C128.246 43.3564 128.204 43.5087 128.119 43.5918C128.035 43.6749 127.781 43.7165 127.358 43.7165H124.653C123.694 43.7165 122.694 42.2899 121.651 39.4366C120.89 37.3867 120.34 35.3368 120.002 33.2869L119.664 31.6663C118.874 33.3561 118.212 35.1567 117.676 37.0681C117.141 38.9518 116.873 40.5724 116.873 41.9297V42.7608C116.901 42.8993 116.901 43.0932 116.873 43.3425C116.845 43.5918 116.732 43.7165 116.535 43.7165H113.448C112.997 43.7165 112.716 43.6749 112.603 43.5918C112.293 43.3702 111.983 42.8023 111.673 41.8882C111.193 40.3646 110.771 38.8549 110.404 37.359C109.925 35.3922 109.404 32.996 108.84 30.1705C107.741 31.5278 106.867 33.0099 106.219 34.6165C105.57 36.2232 105.246 37.7607 105.246 39.2288C105.246 39.7829 105.331 40.3646 105.5 40.974C105.584 41.3065 105.739 41.7635 105.965 42.3453C106.049 42.5946 106.134 42.83 106.219 43.0517C106.303 43.2733 106.345 43.4118 106.345 43.4672C106.345 43.6334 106.204 43.7165 105.923 43.7165H102.456C102.202 43.7165 102.019 43.5503 101.906 43.2179C101.821 42.8854 101.779 42.4699 101.779 41.9713C101.779 40.5862 102.216 38.938 103.09 37.0266C103.682 35.7523 104.415 34.4365 105.288 33.0791C106.021 31.9157 106.529 31.0708 106.81 30.5444C107.487 29.2979 107.825 28.2452 107.825 27.3865C107.797 27.2202 107.783 27.0817 107.783 26.9709C107.727 26.6385 107.698 26.4031 107.698 26.2645C107.698 26.1537 107.727 26.0152 107.783 25.849C107.839 25.6828 107.91 25.572 107.994 25.5166C108.107 25.4335 108.361 25.3919 108.755 25.3919Z" fill="url(#paint3_linear_82_98)"/>
<path d="M142.843 43.7165H132.443C131.963 43.7165 131.611 43.5918 131.386 43.3425C131.16 43.0932 131.047 42.7054 131.047 42.1791V36.9435C131.047 31.6802 131.132 28.4391 131.301 27.2202C131.47 25.9737 131.935 25.3504 132.696 25.3504L133.922 25.3919H134.599C134.768 25.3919 134.951 25.3919 135.148 25.3919C135.43 25.3365 135.628 25.3088 135.74 25.3088H136.205C136.403 25.3365 136.53 25.4058 136.586 25.5166C136.671 25.6274 136.713 25.7521 136.713 25.8906C136.713 26.1122 136.642 26.5693 136.501 27.2618C136.361 27.9266 136.248 28.7854 136.163 29.838C136.079 30.863 136.036 31.8187 136.036 32.7051V33.5777C137.587 33.5777 139.066 33.7717 140.476 34.1595C141.913 34.5196 143.168 35.1152 144.239 35.9462C145.451 36.8881 146.324 38.01 146.86 39.312C147.226 40.2261 147.41 41.1818 147.41 42.1791C147.41 42.927 147.142 43.4118 146.606 43.6334C146.324 43.7442 145.831 43.7996 145.127 43.7996H144.45L143.774 43.758L142.843 43.7165ZM136.036 42.3868H140.603L141.279 42.3453L141.321 41.0987C141.321 39.8244 141.054 38.7579 140.518 37.8992C139.644 36.4587 138.136 35.6138 135.994 35.3645C135.966 35.5861 135.938 35.8354 135.91 36.1124C135.91 36.3617 135.91 36.5834 135.91 36.7773V37.4421C135.91 38.384 135.924 39.4228 135.952 40.5585C136.008 41.6943 136.036 42.3037 136.036 42.3868Z" fill="url(#paint4_linear_82_98)"/>
<path d="M156.889 25.3919H166.994L168.22 25.3504C168.53 25.3504 168.685 25.5443 168.685 25.9321L168.558 28.3422C168.558 30.0597 168.502 31.791 168.389 33.5362C168.277 35.2814 168.22 36.2648 168.22 36.4864C168.22 36.9296 168.277 37.8576 168.389 39.2704C168.502 40.6555 168.587 41.5835 168.643 42.0544C168.699 42.5253 168.728 42.8439 168.728 43.0101C168.728 43.2317 168.601 43.4118 168.347 43.5503C168.122 43.6611 167.671 43.7165 166.994 43.7165H164.88C164.175 43.7165 163.753 43.4395 163.612 42.8854C163.499 42.3037 163.443 40.6693 163.443 37.9823L163.316 35.0321C161.54 35.4199 160.173 36.1817 159.215 37.3174C158.284 38.4255 157.819 39.9491 157.819 41.8882C157.819 42.6084 157.735 43.0655 157.566 43.2594C157.284 43.5641 156.607 43.7165 155.536 43.7165H153.93C152.915 43.7165 152.267 43.6472 151.985 43.5087C151.731 43.3702 151.604 43.1071 151.604 42.7192C151.604 41.2234 152.337 39.6305 153.803 37.9407C155.579 35.8908 157.763 34.7135 160.356 34.4088V34.201C158.017 33.7301 156.269 33.1345 155.113 32.4143C153.535 31.3893 152.746 29.9904 152.746 28.2175C152.746 26.9986 153.112 26.1953 153.845 25.8075C154.381 25.5305 155.395 25.3919 156.889 25.3919ZM161.371 26.6801C160.018 26.6801 159.172 26.8186 158.834 27.0956C158.524 27.3726 158.369 27.9266 158.369 28.7577C158.369 30.1151 158.848 31.237 159.807 32.1234C160.765 33.0099 161.963 33.4531 163.4 33.4531C163.4 31.0985 163.499 28.8408 163.696 26.6801H161.371Z" fill="url(#paint5_linear_82_98)"/>
<path d="M60.7772 57.4693V50.3069H63.4199C63.9612 50.3069 64.4154 50.4095 64.7825 50.6147C65.1518 50.8198 65.4305 51.1019 65.6186 51.461C65.809 51.8177 65.9042 52.2234 65.9042 52.678C65.9042 53.1373 65.809 53.5454 65.6186 53.9021C65.4282 54.2588 65.1472 54.5397 64.7756 54.7449C64.404 54.9478 63.9463 55.0492 63.4027 55.0492H61.6512V53.9825H63.2306C63.5472 53.9825 63.8064 53.9266 64.0083 53.8146C64.2101 53.7027 64.3592 53.5489 64.4556 53.353C64.5542 53.1572 64.6035 52.9322 64.6035 52.678C64.6035 52.4239 64.5542 52.2001 64.4556 52.0066C64.3592 51.8131 64.209 51.6627 64.0048 51.5554C63.8029 51.4458 63.5426 51.3911 63.2237 51.3911H62.0538V57.4693H60.7772Z" fill="#60101D"/>
<path d="M67.013 50.3069H68.2793V55.1891H68.3447L71.6583 50.3069H72.8041V57.4693H71.5275V52.5906H71.4691L68.1451 57.4693H67.013V50.3069Z" fill="#60101D"/>
<path d="M73.8854 51.3946V50.3069H79.5079V51.3946H77.3298V57.4693H76.0636V51.3946H73.8854Z" fill="#60101D"/>
<path d="M81.2215 57.5672V56.4761H81.6241C81.8053 56.4761 81.9544 56.4492 82.0714 56.3956C82.1884 56.342 82.2825 56.2651 82.3536 56.1648C82.427 56.0645 82.4878 55.948 82.5359 55.8151L82.6288 55.5738L80.1101 50.3069H81.4452L83.2 54.1399L84.7175 50.3069H86.0319L83.6026 56.1473C83.4902 56.3991 83.3606 56.6334 83.2138 56.8503C83.067 57.0648 82.8755 57.2385 82.6392 57.3713C82.4052 57.5019 82.1001 57.5672 81.7239 57.5672H81.2215Z" fill="#60101D"/>
<path d="M87.127 57.4693H85.7644L88.2453 50.3069H89.8213L92.3056 57.4693H90.943L89.0608 51.7758H89.0058L87.127 57.4693ZM87.1717 54.661H90.8879V55.7032H87.1717V54.661Z" fill="#60101D"/>
<path d="M92.7762 57.4693V56.3921L92.9757 56.3816C93.2464 56.3653 93.4609 56.2662 93.6192 56.0844C93.7798 55.9025 93.8979 55.6099 93.9736 55.2066C94.0516 54.8032 94.1032 54.2623 94.1284 53.5838L94.2454 50.3069H98.8632V57.4693H97.6141V51.3736H95.436L95.3259 53.986C95.2938 54.7694 95.2089 55.4187 95.0713 55.934C94.9359 56.4492 94.7134 56.8339 94.4037 57.0881C94.0963 57.3422 93.6685 57.4693 93.1202 57.4693H92.7762Z" fill="#60101D"/>
<path d="M101.119 53.0732H102.908C103.447 53.0732 103.909 53.163 104.295 53.3425C104.682 53.5197 104.979 53.7703 105.186 54.0944C105.392 54.4185 105.496 54.7997 105.496 55.238C105.496 55.6787 105.392 56.0669 105.186 56.4026C104.979 56.736 104.682 56.9971 104.295 57.186C103.909 57.3748 103.447 57.4693 102.908 57.4693H100.269V50.3069H101.549V56.4061H102.908C103.192 56.4061 103.433 56.3513 103.631 56.2417C103.828 56.1322 103.977 55.9876 104.078 55.8081C104.181 55.6286 104.233 55.4339 104.233 55.224C104.233 54.9209 104.118 54.6633 103.889 54.4511C103.662 54.2366 103.335 54.1294 102.908 54.1294H101.119V53.0732Z" fill="#60101D"/>
<path d="M106.737 57.4693V50.3069H108.013V53.339H111.279V50.3069H112.559V57.4693H111.279V54.4267H108.013V57.4693H106.737Z" fill="#60101D"/>
<path d="M114.811 53.0732H116.6C117.139 53.0732 117.602 53.163 117.987 53.3425C118.375 53.5197 118.672 53.7703 118.878 54.0944C119.085 54.4185 119.188 54.7997 119.188 55.238C119.188 55.6787 119.085 56.0669 118.878 56.4026C118.672 56.736 118.375 56.9971 117.987 57.186C117.602 57.3748 117.139 57.4693 116.6 57.4693H113.961V50.3069H115.241V56.4061H116.6C116.885 56.4061 117.126 56.3513 117.323 56.2417C117.52 56.1322 117.669 55.9876 117.77 55.8081C117.873 55.6286 117.925 55.4339 117.925 55.224C117.925 54.9209 117.81 54.6633 117.581 54.4511C117.354 54.2366 117.027 54.1294 116.6 54.1294H114.811V53.0732ZM121.077 50.3069V57.4693H119.797V50.3069H121.077Z" fill="#60101D"/>
<path d="M122.464 57.4693V50.3069H127.047V51.3946H123.74V53.339H126.81V54.4267H123.74V56.3816H127.074V57.4693H122.464Z" fill="#60101D"/>
<path d="M131.383 57.5672V56.4761H131.785C131.966 56.4761 132.115 56.4492 132.232 56.3956C132.349 56.342 132.443 56.2651 132.515 56.1648C132.588 56.0645 132.649 55.948 132.697 55.8151L132.79 55.5738L130.271 50.3069H131.606L133.361 54.1399L134.879 50.3069H136.193L133.764 56.1473C133.651 56.3991 133.522 56.6334 133.375 56.8503C133.228 57.0648 133.036 57.2385 132.8 57.3713C132.566 57.5019 132.261 57.5672 131.885 57.5672H131.383Z" fill="#60101D"/>
<path d="M142.737 52.7235H141.45C141.413 52.509 141.345 52.319 141.247 52.1535C141.148 51.9856 141.025 51.8434 140.879 51.7268C140.732 51.6102 140.564 51.5228 140.376 51.4645C140.19 51.4039 139.99 51.3736 139.774 51.3736C139.391 51.3736 139.051 51.4715 138.756 51.6673C138.46 51.8609 138.228 52.1453 138.061 52.5207C137.893 52.8937 137.809 53.3495 137.809 53.8881C137.809 54.436 137.893 54.8976 138.061 55.273C138.23 55.646 138.462 55.9282 138.756 56.1193C139.051 56.3082 139.39 56.4026 139.771 56.4026C139.982 56.4026 140.179 56.3746 140.362 56.3187C140.548 56.2604 140.715 56.1753 140.861 56.0634C141.011 55.9515 141.136 55.8139 141.236 55.6507C141.34 55.4875 141.411 55.301 141.45 55.0911L142.737 55.0981C142.689 55.4385 142.584 55.758 142.424 56.0564C142.265 56.3548 142.058 56.6183 141.801 56.8468C141.544 57.0729 141.243 57.2501 140.899 57.3783C140.555 57.5042 140.173 57.5672 139.753 57.5672C139.134 57.5672 138.581 57.4215 138.095 57.13C137.609 56.8386 137.226 56.4178 136.946 55.8675C136.666 55.3173 136.526 54.6575 136.526 53.8881C136.526 53.1164 136.667 52.4565 136.949 51.9086C137.231 51.3584 137.615 50.9376 138.102 50.6461C138.588 50.3547 139.139 50.209 139.753 50.209C140.146 50.209 140.51 50.2649 140.848 50.3769C141.185 50.4888 141.485 50.6531 141.749 50.87C142.013 51.0845 142.23 51.3479 142.4 51.6603C142.572 51.9704 142.684 52.3248 142.737 52.7235Z" fill="#60101D"/>
<path d="M143.448 57.4693V56.3921L143.648 56.3816C143.918 56.3653 144.133 56.2662 144.291 56.0844C144.452 55.9025 144.57 55.6099 144.646 55.2066C144.724 54.8032 144.775 54.2623 144.8 53.5838L144.917 50.3069H149.535V57.4693H148.286V51.3736H146.108L145.998 53.986C145.966 54.7694 145.881 55.4187 145.743 55.934C145.608 56.4492 145.385 56.8339 145.076 57.0881C144.768 57.3422 144.34 57.4693 143.792 57.4693H143.448Z" fill="#60101D"/>
<path d="M151.557 57.5672V56.4761H151.959C152.141 56.4761 152.29 56.4492 152.407 56.3956C152.524 56.342 152.618 56.2651 152.689 56.1648C152.762 56.0645 152.823 55.948 152.871 55.8151L152.964 55.5738L150.445 50.3069H151.78L153.535 54.1399L155.053 50.3069H156.367L153.938 56.1473C153.825 56.3991 153.696 56.6334 153.549 56.8503C153.402 57.0648 153.211 57.2385 152.974 57.3713C152.74 57.5019 152.435 57.5672 152.059 57.5672H151.557Z" fill="#60101D"/>
<path d="M161.808 50.3069V51.3946H158.553V57.4693H157.276V50.3069H161.808Z" fill="#60101D"/>
<path d="M162.888 50.3069H164.154V55.1891H164.219L167.533 50.3069H168.679V57.4693H167.402V52.5906H167.344L164.02 57.4693H162.888V50.3069Z" fill="#60101D"/>
<defs>
<linearGradient id="paint0_linear_82_98" x1="0.104514" y1="57.7856" x2="0.104511" y2="0.43286" gradientUnits="userSpaceOnUse">
<stop stop-color="#520E14"/>
<stop offset="1" stop-color="#801433"/>
</linearGradient>
<linearGradient id="paint1_linear_82_98" x1="170.881" y1="52.806" x2="170.881" y2="15.1493" gradientUnits="userSpaceOnUse">
<stop stop-color="#520E14"/>
<stop offset="1" stop-color="#801433"/>
</linearGradient>
<linearGradient id="paint2_linear_82_98" x1="170.881" y1="52.806" x2="170.881" y2="15.1493" gradientUnits="userSpaceOnUse">
<stop stop-color="#520E14"/>
<stop offset="1" stop-color="#801433"/>
</linearGradient>
<linearGradient id="paint3_linear_82_98" x1="170.881" y1="52.806" x2="170.881" y2="15.1493" gradientUnits="userSpaceOnUse">
<stop stop-color="#520E14"/>
<stop offset="1" stop-color="#801433"/>
</linearGradient>
<linearGradient id="paint4_linear_82_98" x1="170.881" y1="52.806" x2="170.881" y2="15.1493" gradientUnits="userSpaceOnUse">
<stop stop-color="#520E14"/>
<stop offset="1" stop-color="#801433"/>
</linearGradient>
<linearGradient id="paint5_linear_82_98" x1="170.881" y1="52.806" x2="170.881" y2="15.1493" gradientUnits="userSpaceOnUse">
<stop stop-color="#520E14"/>
<stop offset="1" stop-color="#801433"/>
</linearGradient>
</defs>
</svg>
