<svg width="116" height="10" viewBox="0 0 116 10" fill="none" xmlns="http://www.w3.org/2000/svg">
<path d="M58 8V10H66V8H58Z" fill="white"/>
<path d="M14 8V10H20V8H14Z" fill="white"/>
<path d="M68 6H66V8H68V6Z" fill="white"/>
<path d="M62 4V6H66V4H62Z" fill="white"/>
<path d="M24 10H26V4H24V10Z" fill="white"/>
<path d="M6 4H4V6H6V4Z" fill="white"/>
<path d="M112 2H110V4H112V2Z" fill="white"/>
<path d="M68 2H66V4H68V2Z" fill="white"/>
<path d="M28 2H26V4H28V2Z" fill="white"/>
<path d="M112 0V2H114V8H110V4H108V8H106V10H116V0H112Z" fill="white"/>
<path d="M94 0V10H104V0H94ZM102 8H96V2H102V8Z" fill="white"/>
<path d="M90 4H84V2H90V0H82V10H90V8H84V6H90V8H92V2H90V4Z" fill="white"/>
<path d="M70 0V10H72V6H78V10H80V0H70ZM78 4H72V2H78V4Z" fill="white"/>
<path d="M58 0V2H66V0H58Z" fill="white"/>
<path d="M46 0V2H50V10H52V2H56V0H46Z" fill="white"/>
<path d="M44 8H38V6H44V4H38V0H36V10H46V6H44V8Z" fill="white"/>
<path d="M28 0V2H32V10H34V0H28Z" fill="white"/>
<path d="M20 4H14V6H20V8H22V0H20V4Z" fill="white"/>
<path d="M14 0H12V4H14V0Z" fill="white"/>
<path d="M8 2H6V4H8V10H10V0H8V2Z" fill="white"/>
<path d="M2 2V0H0V10H2V4H4V2H2Z" fill="white"/>
</svg>
